# CINCIN Ada 189 - PLANKOTE arazi modeli
o ARAZI
v 115.3700 65.1400 114.9000
v 119.1800 67.5700 115.0000
v 124.0000 67.8400 113.7000
v 142.5200 69.9000 110.2000
v 152.7300 71.5900 110.4000
v 167.3500 72.0000 108.6000
v 181.2600 73.2800 108.4000
v 191.9400 71.7800 110.3000
v 207.8900 71.8100 109.4000
v 221.5800 72.9500 108.0000
v 236.2200 74.1700 105.4000
v 245.5000 75.0500 103.8000
v 260.7800 75.5300 102.7000
v 262.9200 68.3000 100.7000
v 267.8700 62.2300 97.4000
v 261.2300 58.4500 97.6000
v 245.7300 51.2600 99.4000
v 235.7300 43.0100 102.8000
v 227.2600 37.7900 102.2000
v 211.8800 26.7400 101.2000
v 205.0700 21.5200 100.9000
v 195.0900 28.2900 102.0000
v 182.5900 35.2200 105.5000
v 174.1800 28.5700 106.5000
v 165.0700 19.3300 107.8000
v 157.8400 11.0400 108.7000
v 154.6800 5.2200 108.8000
v 151.2500 21.9800 110.2000
v 147.3300 29.6900 110.6000
v 135.2500 44.4300 110.8000
v 123.2400 56.5100 112.0000
v 125.9500 53.7900 111.6000
v 138.4900 40.4800 110.0000
v 240.1000 46.6200 102.9000
v 148.7900 62.8100 108.9000
v 173.7900 64.8100 107.6000
v 198.7900 65.8100 107.1000
v 223.7900 67.8100 105.1000
v 243.7900 68.8100 104.0000
v 133.7900 60.8100 110.0000
v 218.7900 69.8100 106.5000
v 153.7900 48.8100 108.5000
v 176.7900 50.8100 106.1000
v 196.7900 51.8100 105.6000
v 218.7900 52.8100 103.4000
v 230.7900 53.8100 103.0000
v 163.7900 46.8100 107.1000
v 186.7900 50.8100 105.8000
v 163.7900 33.8100 108.4000
v 180.7900 31.8100 106.5000
v 196.7900 29.8100 104.9000
v 213.7900 30.8100 103.5000
v 188.7900 36.8100 105.9000
v 170.7900 28.8100 107.4000
v 204.7900 28.8100 103.6000
v 188.7900 79.8100 112.8000
v 218.7900 80.8100 113.9000
v 158.7900 78.8100 111.4000
v 238.7900 78.8100 112.8000
v 268.7900 74.8100 106.0000
v 110.7900 59.8100 115.6000
v 106.7900 44.8100 114.7000
v 113.7900 29.8100 113.4000
v 118.7900 14.8100 112.3000
v 126.7900 4.8100 111.6000
v 103.7900 69.8100 117.9000
v 96.7900 56.8100 118.0000
v 100.7900 39.8100 116.7000
v 168.7900 -0.1900 107.7000
v 188.7900 -3.1900 107.6000
v 148.7900 -3.1900 109.6000
v 208.7900 2.8100 104.7000
v 218.7900 9.8100 102.2000
v 226.7900 19.8100 103.6000
v 218.7900 29.8100 103.6000
v 258.7900 52.8100 98.7000
v 253.7900 44.8100 98.3000
v 263.7900 56.8100 97.8000
v 248.7900 39.8100 99.5000
v 238.7900 32.8100 98.9000
f 14 15 60
f 13 14 60
f 39 14 13
f 39 46 17
f 66 1 2
f 68 62 67
f 62 68 63
f 68 64 63
f 69 71 70
f 3 66 2
f 3 58 66
f 36 35 47
f 29 64 65
f 9 57 56
f 74 80 19
f 59 13 60
f 39 16 14
f 14 16 15
f 16 78 15
f 16 39 17
f 11 46 39
f 11 57 10
f 11 59 57
f 80 18 19
f 18 46 19
f 32 62 63
f 30 32 63
f 8 9 56
f 43 36 47
f 69 27 71
f 27 69 26
f 71 27 65
f 35 42 47
f 42 35 30
f 6 35 36
f 3 4 58
f 28 27 26
f 28 29 65
f 27 28 65
f 46 45 19
f 72 21 70
f 21 72 73
f 21 20 55
f 74 20 73
f 20 21 73
f 12 39 13
f 59 12 13
f 12 11 39
f 11 12 59
f 76 77 78
f 16 76 78
f 77 76 17
f 76 16 17
f 46 34 17
f 18 34 46
f 62 61 67
f 61 66 67
f 61 1 66
f 7 8 56
f 7 6 36
f 58 7 56
f 6 7 58
f 8 37 9
f 45 37 44
f 37 45 9
f 33 42 30
f 42 33 29
f 33 30 63
f 64 33 63
f 29 33 64
f 5 6 58
f 6 5 35
f 4 5 58
f 5 4 35
f 4 40 35
f 35 40 30
f 40 32 30
f 40 4 3
f 45 41 9
f 57 41 10
f 9 41 57
f 55 52 44
f 52 45 44
f 20 52 55
f 45 52 19
f 79 18 80
f 79 34 18
f 74 79 80
f 79 77 17
f 34 79 17
f 79 74 73
f 61 31 1
f 1 31 2
f 32 31 62
f 31 61 62
f 31 3 2
f 31 40 3
f 40 31 32
f 51 55 44
f 53 51 44
f 51 21 55
f 48 53 44
f 37 48 44
f 48 37 8
f 43 48 36
f 48 7 36
f 7 48 8
f 38 45 46
f 38 41 45
f 41 38 10
f 38 11 10
f 11 38 46
f 75 20 74
f 75 52 20
f 75 74 19
f 52 75 19
f 21 22 70
f 51 22 21
f 22 24 70
f 22 51 53
f 42 49 47
f 49 42 29
f 28 49 29
f 23 48 43
f 48 23 53
f 23 43 47
f 49 23 47
f 25 28 26
f 25 49 28
f 69 25 26
f 25 69 70
f 24 25 70
f 22 50 24
f 50 23 24
f 50 22 53
f 23 50 53
f 54 25 24
f 25 54 49
f 23 54 24
f 54 23 49
o PLATFORM_115
v 185.0765 68.7906 107.2500
v 115.3700 65.1400 107.2500
v 119.1800 67.5700 107.2500
v 124.0000 67.8400 107.2500
v 142.5200 69.9000 107.2500
v 152.7300 71.5900 107.2500
v 167.3500 72.0000 107.2500
v 181.2600 73.2800 107.2500
v 191.9400 71.7800 107.2500
v 207.8900 71.8100 107.2500
v 221.5800 72.9500 107.2500
v 236.2200 74.1700 107.2500
v 245.5000 75.0500 107.2500
v 260.7800 75.5300 107.2500
v 262.9200 68.3000 107.2500
v 267.8700 62.2300 107.2500
v 125.9500 53.7900 107.2500
v 123.2400 56.5100 107.2500
f 81 82 83
f 81 83 84
f 81 84 85
f 81 85 86
f 81 86 87
f 81 87 88
f 81 88 89
f 81 89 90
f 81 90 91
f 81 91 92
f 81 92 93
f 81 93 94
f 81 94 95
f 81 95 96
f 81 96 97
f 81 97 98
f 81 98 82
o PLATFORM_116
v 202.0886 51.0371 105.5000
v 125.9500 53.7900 105.5000
v 267.8700 62.2300 105.5000
v 261.2300 58.4500 105.5000
v 245.7300 51.2600 105.5000
v 240.1000 46.6200 105.5000
v 138.4900 40.4800 105.5000
v 135.2500 44.4300 105.5000
f 99 100 101
f 99 101 102
f 99 102 103
f 99 103 104
f 99 104 105
f 99 105 106
f 99 106 100
o PLATFORM_117
v 184.7543 28.2500 106.2500
v 138.4900 40.4800 106.2500
v 240.1000 46.6200 106.2500
v 235.7300 43.0100 106.2500
v 227.2600 37.7900 106.2500
v 211.8800 26.7400 106.2500
v 205.0700 21.5200 106.2500
v 195.0900 28.2900 106.2500
v 182.5900 35.2200 106.2500
v 174.1800 28.5700 106.2500
v 165.0700 19.3300 106.2500
v 157.8400 11.0400 106.2500
v 154.6800 5.2200 106.2500
v 151.2500 21.9800 106.2500
v 147.3300 29.6900 106.2500
f 107 108 109
f 107 109 110
f 107 110 111
f 107 111 112
f 107 112 113
f 107 113 114
f 107 114 115
f 107 115 116
f 107 116 117
f 107 117 118
f 107 118 119
f 107 119 120
f 107 120 121
f 107 121 108
