<COLLADA xmlns="http://www.collada.org/2005/11/COLLADASchema" version="1.4.1">
  <asset>
    <created>2026-09-09T12:56:16.842746</created>
    <modified>2026-09-09T12:56:16.842752</modified>
    <unit name="meter" meter="1.0"/>
    <up_axis>Z_UP</up_axis>
  </asset>
  <library_effects>
    <effect id="eff0" name="eff0">
      <profile_COMMON>
        <technique sid="common">
          <lambert>
            <emission>
              <color>0.0 0.0 0.0 1.0</color>
            </emission>
            <ambient>
              <color>0.0 0.0 0.0 1.0</color>
            </ambient>
            <diffuse>
              <color>0.67 0.59 0.47 1.0</color>
            </diffuse>
            <specular>
              <color>0.0 0.0 0.0 1.0</color>
            </specular>
            <shininess>
              <float>0.0</float>
            </shininess>
            <reflective>
              <color>0.0 0.0 0.0 1.0</color>
            </reflective>
            <reflectivity>
              <float>0.0</float>
            </reflectivity>
            <transparent>
              <color>0.0 0.0 0.0 1.0</color>
            </transparent>
            <transparency>
              <float>1.0</float>
            </transparency>
          </lambert>
        </technique>
        <extra>
          <technique profile="GOOGLEEARTH">
            <double_sided>0</double_sided>
          </technique>
        </extra>
      </profile_COMMON>
    </effect>
    <effect id="eff1" name="eff1">
      <profile_COMMON>
        <technique sid="common">
          <lambert>
            <emission>
              <color>0.0 0.0 0.0 1.0</color>
            </emission>
            <ambient>
              <color>0.0 0.0 0.0 1.0</color>
            </ambient>
            <diffuse>
              <color>0.82 0.35 0.35 1.0</color>
            </diffuse>
            <specular>
              <color>0.0 0.0 0.0 1.0</color>
            </specular>
            <shininess>
              <float>0.0</float>
            </shininess>
            <reflective>
              <color>0.0 0.0 0.0 1.0</color>
            </reflective>
            <reflectivity>
              <float>0.0</float>
            </reflectivity>
            <transparent>
              <color>0.0 0.0 0.0 1.0</color>
            </transparent>
            <transparency>
              <float>1.0</float>
            </transparency>
          </lambert>
        </technique>
        <extra>
          <technique profile="GOOGLEEARTH">
            <double_sided>0</double_sided>
          </technique>
        </extra>
      </profile_COMMON>
    </effect>
    <effect id="eff2" name="eff2">
      <profile_COMMON>
        <technique sid="common">
          <lambert>
            <emission>
              <color>0.0 0.0 0.0 1.0</color>
            </emission>
            <ambient>
              <color>0.0 0.0 0.0 1.0</color>
            </ambient>
            <diffuse>
              <color>0.35 0.59 0.82 1.0</color>
            </diffuse>
            <specular>
              <color>0.0 0.0 0.0 1.0</color>
            </specular>
            <shininess>
              <float>0.0</float>
            </shininess>
            <reflective>
              <color>0.0 0.0 0.0 1.0</color>
            </reflective>
            <reflectivity>
              <float>0.0</float>
            </reflectivity>
            <transparent>
              <color>0.0 0.0 0.0 1.0</color>
            </transparent>
            <transparency>
              <float>1.0</float>
            </transparency>
          </lambert>
        </technique>
        <extra>
          <technique profile="GOOGLEEARTH">
            <double_sided>0</double_sided>
          </technique>
        </extra>
      </profile_COMMON>
    </effect>
    <effect id="eff3" name="eff3">
      <profile_COMMON>
        <technique sid="common">
          <lambert>
            <emission>
              <color>0.0 0.0 0.0 1.0</color>
            </emission>
            <ambient>
              <color>0.0 0.0 0.0 1.0</color>
            </ambient>
            <diffuse>
              <color>0.47 0.78 0.47 1.0</color>
            </diffuse>
            <specular>
              <color>0.0 0.0 0.0 1.0</color>
            </specular>
            <shininess>
              <float>0.0</float>
            </shininess>
            <reflective>
              <color>0.0 0.0 0.0 1.0</color>
            </reflective>
            <reflectivity>
              <float>0.0</float>
            </reflectivity>
            <transparent>
              <color>0.0 0.0 0.0 1.0</color>
            </transparent>
            <transparency>
              <float>1.0</float>
            </transparency>
          </lambert>
        </technique>
        <extra>
          <technique profile="GOOGLEEARTH">
            <double_sided>0</double_sided>
          </technique>
        </extra>
      </profile_COMMON>
    </effect>
  </library_effects>
  <library_geometries>
    <geometry id="geo0" name="ARAZI">
      <mesh>
        <source id="v0">
          <float_array count="240" id="v0-array">566396.6 4178580 114.9 566400.4 4178583 115 566405.2 4178583 113.7 566423.7 4178585 110.2 566433.9 4178587 110.4 566448.6 4178587 108.6 566462.5 4178588 108.4 566473.2 4178587 110.3 566489.1 4178587 109.4 566502.8 4178588 108 566517.4 4178589 105.4 566526.7 4178590 103.8 566542 4178591 102.7 566544.1 4178583 100.7 566549.1 4178577 97.4 566542.4 4178574 97.6 566526.9 4178566 99.4 566516.9 4178558 102.8 566508.5 4178553 102.2 566493.1 4178542 101.2 566486.3 4178537 100.9 566476.3 4178543 102 566463.8 4178550 105.5 566455.4 4178544 106.5 566446.3 4178535 107.8 566439.1 4178526 108.7 566435.9 4178520 108.8 566432.5 4178537 110.2 566428.5 4178545 110.6 566416.5 4178560 110.8 566404.4 4178572 112 566407.2 4178569 111.6 566419.7 4178556 110 566521.3 4178562 102.9 566430 4178578 108.9 566455 4178580 107.6 566480 4178581 107.1 566505 4178583 105.1 566525 4178584 104 566415 4178576 110 566500 4178585 106.5 566435 4178564 108.5 566458 4178566 106.1 566478 4178567 105.6 566500 4178568 103.4 566512 4178569 103 566445 4178562 107.1 566468 4178566 105.8 566445 4178549 108.4 566462 4178547 106.5 566478 4178545 104.9 566495 4178546 103.5 566470 4178552 105.9 566452 4178544 107.4 566486 4178544 103.6 566470 4178595 112.8 566500 4178596 113.9 566440 4178594 111.4 566520 4178594 112.8 566550 4178590 106 566392 4178575 115.6 566388 4178560 114.7 566395 4178545 113.4 566400 4178530 112.3 566408 4178520 111.6 566385 4178585 117.9 566378 4178572 118 566382 4178555 116.7 566450 4178515 107.7 566470 4178512 107.6 566430 4178512 109.6 566490 4178518 104.7 566500 4178525 102.2 566508 4178535 103.6 566500 4178545 103.6 566540 4178568 98.7 566535 4178560 98.3 566545 4178572 97.8 566530 4178555 99.5 566520 4178548 98.9</float_array>
          <technique_common>
            <accessor count="80" source="#v0-array" stride="3">
              <param type="float" name="X"/>
              <param type="float" name="Y"/>
              <param type="float" name="Z"/>
            </accessor>
          </technique_common>
        </source>
        <vertices id="v0-vertices">
          <input semantic="POSITION" source="#v0"/>
        </vertices>
        <triangles count="140" material="ms0">
          <input offset="0" semantic="VERTEX" source="#v0-vertices"/>
          <p>13 14 59 12 13 59 38 13 12 38 45 16 65 0 1 67 61 66 61 67 62 67 63 62 68 70 69 2 65 1 2 57 65 35 34 46 28 63 64 8 56 55 73 79 18 58 12 59 38 15 13 13 15 14 15 77 14 15 38 16 10 45 38 10 56 9 10 58 56 79 17 18 17 45 18 31 61 62 29 31 62 7 8 55 42 35 46 68 26 70 26 68 25 70 26 64 34 41 46 41 34 29 5 34 35 2 3 57 27 26 25 27 28 64 26 27 64 45 44 18 71 20 69 20 71 72 20 19 54 73 19 72 19 20 72 11 38 12 58 11 12 11 10 38 10 11 58 75 76 77 15 75 77 76 75 16 75 15 16 45 33 16 17 33 45 61 60 66 60 65 66 60 0 65 6 7 55 6 5 35 57 6 55 5 6 57 7 36 8 44 36 43 36 44 8 32 41 29 41 32 28 32 29 62 63 32 62 28 32 63 4 5 57 5 4 34 3 4 57 4 3 34 3 39 34 34 39 29 39 31 29 39 3 2 44 40 8 56 40 9 8 40 56 54 51 43 51 44 43 19 51 54 44 51 18 78 17 79 78 33 17 73 78 79 78 76 16 33 78 16 78 73 72 60 30 0 0 30 1 31 30 61 30 60 61 30 2 1 30 39 2 39 30 31 50 54 43 52 50 43 50 20 54 47 52 43 36 47 43 47 36 7 42 47 35 47 6 35 6 47 7 37 44 45 37 40 44 40 37 9 37 10 9 10 37 45 74 19 73 74 51 19 74 73 18 51 74 18 20 21 69 50 21 20 21 23 69 21 50 52 41 48 46 48 41 28 27 48 28 22 47 42 47 22 52 22 42 46 48 22 46 24 27 25 24 48 27 68 24 25 24 68 69 23 24 69 21 49 23 49 22 23 49 21 52 22 49 52 53 24 23 24 53 48 22 53 23 53 22 48</p>
        </triangles>
      </mesh>
    </geometry>
    <geometry id="geo1" name="PLATFORM_115">
      <mesh>
        <source id="v1">
          <float_array count="54" id="v1-array">566466.3 4178584 107.25 566396.6 4178580 107.25 566400.4 4178583 107.25 566405.2 4178583 107.25 566423.7 4178585 107.25 566433.9 4178587 107.25 566448.6 4178587 107.25 566462.5 4178588 107.25 566473.2 4178587 107.25 566489.1 4178587 107.25 566502.8 4178588 107.25 566517.4 4178589 107.25 566526.7 4178590 107.25 566542 4178591 107.25 566544.1 4178583 107.25 566549.1 4178577 107.25 566407.2 4178569 107.25 566404.4 4178572 107.25</float_array>
          <technique_common>
            <accessor count="18" source="#v1-array" stride="3">
              <param type="float" name="X"/>
              <param type="float" name="Y"/>
              <param type="float" name="Z"/>
            </accessor>
          </technique_common>
        </source>
        <vertices id="v1-vertices">
          <input semantic="POSITION" source="#v1"/>
        </vertices>
        <triangles count="17" material="ms1">
          <input offset="0" semantic="VERTEX" source="#v1-vertices"/>
          <p>0 1 2 0 2 3 0 3 4 0 4 5 0 5 6 0 6 7 0 7 8 0 8 9 0 9 10 0 10 11 0 11 12 0 12 13 0 13 14 0 14 15 0 15 16 0 16 17 0 17 1</p>
        </triangles>
      </mesh>
    </geometry>
    <geometry id="geo2" name="PLATFORM_116">
      <mesh>
        <source id="v2">
          <float_array count="24" id="v2-array">566483.3 4178566 105.5 566407.2 4178569 105.5 566549.1 4178577 105.5 566542.4 4178574 105.5 566526.9 4178566 105.5 566521.3 4178562 105.5 566419.7 4178556 105.5 566416.5 4178560 105.5</float_array>
          <technique_common>
            <accessor count="8" source="#v2-array" stride="3">
              <param type="float" name="X"/>
              <param type="float" name="Y"/>
              <param type="float" name="Z"/>
            </accessor>
          </technique_common>
        </source>
        <vertices id="v2-vertices">
          <input semantic="POSITION" source="#v2"/>
        </vertices>
        <triangles count="7" material="ms2">
          <input offset="0" semantic="VERTEX" source="#v2-vertices"/>
          <p>0 1 2 0 2 3 0 3 4 0 4 5 0 5 6 0 6 7 0 7 1</p>
        </triangles>
      </mesh>
    </geometry>
    <geometry id="geo3" name="PLATFORM_117">
      <mesh>
        <source id="v3">
          <float_array count="45" id="v3-array">566466 4178543 106.25 566419.7 4178556 106.25 566521.3 4178562 106.25 566516.9 4178558 106.25 566508.5 4178553 106.25 566493.1 4178542 106.25 566486.3 4178537 106.25 566476.3 4178543 106.25 566463.8 4178550 106.25 566455.4 4178544 106.25 566446.3 4178535 106.25 566439.1 4178526 106.25 566435.9 4178520 106.25 566432.5 4178537 106.25 566428.5 4178545 106.25</float_array>
          <technique_common>
            <accessor count="15" source="#v3-array" stride="3">
              <param type="float" name="X"/>
              <param type="float" name="Y"/>
              <param type="float" name="Z"/>
            </accessor>
          </technique_common>
        </source>
        <vertices id="v3-vertices">
          <input semantic="POSITION" source="#v3"/>
        </vertices>
        <triangles count="14" material="ms3">
          <input offset="0" semantic="VERTEX" source="#v3-vertices"/>
          <p>0 1 2 0 2 3 0 3 4 0 4 5 0 5 6 0 6 7 0 7 8 0 8 9 0 9 10 0 10 11 0 11 12 0 12 13 0 13 14 0 14 1</p>
        </triangles>
      </mesh>
    </geometry>
  </library_geometries>
  <library_materials>
    <material id="mat0" name="ARAZI">
      <instance_effect url="#eff0"/>
    </material>
    <material id="mat1" name="PLATFORM_115">
      <instance_effect url="#eff1"/>
    </material>
    <material id="mat2" name="PLATFORM_116">
      <instance_effect url="#eff2"/>
    </material>
    <material id="mat3" name="PLATFORM_117">
      <instance_effect url="#eff3"/>
    </material>
  </library_materials>
  <library_visual_scenes>
    <visual_scene id="scene">
      <node id="n0" name="n0">
        <instance_geometry url="#geo0">
          <bind_material>
            <technique_common>
              <instance_material symbol="ms0" target="#mat0"/>
            </technique_common>
          </bind_material>
        </instance_geometry>
      </node>
      <node id="n1" name="n1">
        <instance_geometry url="#geo1">
          <bind_material>
            <technique_common>
              <instance_material symbol="ms1" target="#mat1"/>
            </technique_common>
          </bind_material>
        </instance_geometry>
      </node>
      <node id="n2" name="n2">
        <instance_geometry url="#geo2">
          <bind_material>
            <technique_common>
              <instance_material symbol="ms2" target="#mat2"/>
            </technique_common>
          </bind_material>
        </instance_geometry>
      </node>
      <node id="n3" name="n3">
        <instance_geometry url="#geo3">
          <bind_material>
            <technique_common>
              <instance_material symbol="ms3" target="#mat3"/>
            </technique_common>
          </bind_material>
        </instance_geometry>
      </node>
    </visual_scene>
  </library_visual_scenes>
  <scene>
    <instance_visual_scene url="#scene"/>
  </scene>
</COLLADA>
