# CINCIN Ada 189 - PLANKOTE arazi modeli
o ARAZI
v 566396.5800 4178580.3300 114.9000
v 566400.3900 4178582.7600 115.0000
v 566405.2100 4178583.0300 113.7000
v 566423.7300 4178585.0900 110.2000
v 566433.9400 4178586.7800 110.4000
v 566448.5600 4178587.1900 108.6000
v 566462.4700 4178588.4700 108.4000
v 566473.1500 4178586.9700 110.3000
v 566489.1000 4178587.0000 109.4000
v 566502.7900 4178588.1400 108.0000
v 566517.4300 4178589.3600 105.4000
v 566526.7100 4178590.2400 103.8000
v 566541.9900 4178590.7200 102.7000
v 566544.1300 4178583.4900 100.7000
v 566549.0800 4178577.4200 97.4000
v 566542.4400 4178573.6400 97.6000
v 566526.9400 4178566.4500 99.4000
v 566516.9400 4178558.2000 102.8000
v 566508.4700 4178552.9800 102.2000
v 566493.0900 4178541.9300 101.2000
v 566486.2800 4178536.7100 100.9000
v 566476.3000 4178543.4800 102.0000
v 566463.8000 4178550.4100 105.5000
v 566455.3900 4178543.7600 106.5000
v 566446.2800 4178534.5200 107.8000
v 566439.0500 4178526.2300 108.7000
v 566435.8900 4178520.4100 108.8000
v 566432.4600 4178537.1700 110.2000
v 566428.5400 4178544.8800 110.6000
v 566416.4600 4178559.6200 110.8000
v 566404.4500 4178571.7000 112.0000
v 566407.1600 4178568.9800 111.6000
v 566419.7000 4178555.6700 110.0000
v 566521.3100 4178561.8100 102.9000
v 566430.0000 4178578.0000 108.9000
v 566455.0000 4178580.0000 107.6000
v 566480.0000 4178581.0000 107.1000
v 566505.0000 4178583.0000 105.1000
v 566525.0000 4178584.0000 104.0000
v 566415.0000 4178576.0000 110.0000
v 566500.0000 4178585.0000 106.5000
v 566435.0000 4178564.0000 108.5000
v 566458.0000 4178566.0000 106.1000
v 566478.0000 4178567.0000 105.6000
v 566500.0000 4178568.0000 103.4000
v 566512.0000 4178569.0000 103.0000
v 566445.0000 4178562.0000 107.1000
v 566468.0000 4178566.0000 105.8000
v 566445.0000 4178549.0000 108.4000
v 566462.0000 4178547.0000 106.5000
v 566478.0000 4178545.0000 104.9000
v 566495.0000 4178546.0000 103.5000
v 566470.0000 4178552.0000 105.9000
v 566452.0000 4178544.0000 107.4000
v 566486.0000 4178544.0000 103.6000
v 566470.0000 4178595.0000 112.8000
v 566500.0000 4178596.0000 113.9000
v 566440.0000 4178594.0000 111.4000
v 566520.0000 4178594.0000 112.8000
v 566550.0000 4178590.0000 106.0000
v 566392.0000 4178575.0000 115.6000
v 566388.0000 4178560.0000 114.7000
v 566395.0000 4178545.0000 113.4000
v 566400.0000 4178530.0000 112.3000
v 566408.0000 4178520.0000 111.6000
v 566385.0000 4178585.0000 117.9000
v 566378.0000 4178572.0000 118.0000
v 566382.0000 4178555.0000 116.7000
v 566450.0000 4178515.0000 107.7000
v 566470.0000 4178512.0000 107.6000
v 566430.0000 4178512.0000 109.6000
v 566490.0000 4178518.0000 104.7000
v 566500.0000 4178525.0000 102.2000
v 566508.0000 4178535.0000 103.6000
v 566500.0000 4178545.0000 103.6000
v 566540.0000 4178568.0000 98.7000
v 566535.0000 4178560.0000 98.3000
v 566545.0000 4178572.0000 97.8000
v 566530.0000 4178555.0000 99.5000
v 566520.0000 4178548.0000 98.9000
f 14 15 60
f 13 14 60
f 39 14 13
f 39 46 17
f 66 1 2
f 68 62 67
f 62 68 63
f 68 64 63
f 69 71 70
f 3 66 2
f 3 58 66
f 36 35 47
f 29 64 65
f 9 57 56
f 74 80 19
f 59 13 60
f 39 16 14
f 14 16 15
f 16 78 15
f 16 39 17
f 11 46 39
f 11 57 10
f 11 59 57
f 80 18 19
f 18 46 19
f 32 62 63
f 30 32 63
f 8 9 56
f 43 36 47
f 69 27 71
f 27 69 26
f 71 27 65
f 35 42 47
f 42 35 30
f 6 35 36
f 3 4 58
f 28 27 26
f 28 29 65
f 27 28 65
f 46 45 19
f 72 21 70
f 21 72 73
f 21 20 55
f 74 20 73
f 20 21 73
f 12 39 13
f 59 12 13
f 12 11 39
f 11 12 59
f 76 77 78
f 16 76 78
f 77 76 17
f 76 16 17
f 46 34 17
f 18 34 46
f 62 61 67
f 61 66 67
f 61 1 66
f 7 8 56
f 7 6 36
f 58 7 56
f 6 7 58
f 8 37 9
f 45 37 44
f 37 45 9
f 33 42 30
f 42 33 29
f 33 30 63
f 64 33 63
f 29 33 64
f 5 6 58
f 6 5 35
f 4 5 58
f 5 4 35
f 4 40 35
f 35 40 30
f 40 32 30
f 40 4 3
f 45 41 9
f 57 41 10
f 9 41 57
f 55 52 44
f 52 45 44
f 20 52 55
f 45 52 19
f 79 18 80
f 79 34 18
f 74 79 80
f 79 77 17
f 34 79 17
f 79 74 73
f 61 31 1
f 1 31 2
f 32 31 62
f 31 61 62
f 31 3 2
f 31 40 3
f 40 31 32
f 51 55 44
f 53 51 44
f 51 21 55
f 48 53 44
f 37 48 44
f 48 37 8
f 43 48 36
f 48 7 36
f 7 48 8
f 38 45 46
f 38 41 45
f 41 38 10
f 38 11 10
f 11 38 46
f 75 20 74
f 75 52 20
f 75 74 19
f 52 75 19
f 21 22 70
f 51 22 21
f 22 24 70
f 22 51 53
f 42 49 47
f 49 42 29
f 28 49 29
f 23 48 43
f 48 23 53
f 23 43 47
f 49 23 47
f 25 28 26
f 25 49 28
f 69 25 26
f 25 69 70
f 24 25 70
f 22 50 24
f 50 23 24
f 50 22 53
f 23 50 53
f 54 25 24
f 25 54 49
f 23 54 24
f 54 23 49
o PLATFORM_115
v 566466.2865 4178583.9806 107.2500
v 566396.5800 4178580.3300 107.2500
v 566400.3900 4178582.7600 107.2500
v 566405.2100 4178583.0300 107.2500
v 566423.7300 4178585.0900 107.2500
v 566433.9400 4178586.7800 107.2500
v 566448.5600 4178587.1900 107.2500
v 566462.4700 4178588.4700 107.2500
v 566473.1500 4178586.9700 107.2500
v 566489.1000 4178587.0000 107.2500
v 566502.7900 4178588.1400 107.2500
v 566517.4300 4178589.3600 107.2500
v 566526.7100 4178590.2400 107.2500
v 566541.9900 4178590.7200 107.2500
v 566544.1300 4178583.4900 107.2500
v 566549.0800 4178577.4200 107.2500
v 566407.1600 4178568.9800 107.2500
v 566404.4500 4178571.7000 107.2500
f 81 82 83
f 81 83 84
f 81 84 85
f 81 85 86
f 81 86 87
f 81 87 88
f 81 88 89
f 81 89 90
f 81 90 91
f 81 91 92
f 81 92 93
f 81 93 94
f 81 94 95
f 81 95 96
f 81 96 97
f 81 97 98
f 81 98 82
o PLATFORM_116
v 566483.2986 4178566.2271 105.5000
v 566407.1600 4178568.9800 105.5000
v 566549.0800 4178577.4200 105.5000
v 566542.4400 4178573.6400 105.5000
v 566526.9400 4178566.4500 105.5000
v 566521.3100 4178561.8100 105.5000
v 566419.7000 4178555.6700 105.5000
v 566416.4600 4178559.6200 105.5000
f 99 100 101
f 99 101 102
f 99 102 103
f 99 103 104
f 99 104 105
f 99 105 106
f 99 106 100
o PLATFORM_117
v 566465.9643 4178543.4400 106.2500
v 566419.7000 4178555.6700 106.2500
v 566521.3100 4178561.8100 106.2500
v 566516.9400 4178558.2000 106.2500
v 566508.4700 4178552.9800 106.2500
v 566493.0900 4178541.9300 106.2500
v 566486.2800 4178536.7100 106.2500
v 566476.3000 4178543.4800 106.2500
v 566463.8000 4178550.4100 106.2500
v 566455.3900 4178543.7600 106.2500
v 566446.2800 4178534.5200 106.2500
v 566439.0500 4178526.2300 106.2500
v 566435.8900 4178520.4100 106.2500
v 566432.4600 4178537.1700 106.2500
v 566428.5400 4178544.8800 106.2500
f 107 108 109
f 107 109 110
f 107 110 111
f 107 111 112
f 107 112 113
f 107 113 114
f 107 114 115
f 107 115 116
f 107 116 117
f 107 117 118
f 107 118 119
f 107 119 120
f 107 120 121
f 107 121 108
