# https://github.com/mikedh/trimesh

o geometry_0
v 18.58000000 68.33000000 114.90000000 0.66666667 0.58823529 0.47058824
v 22.39000000 70.76000000 115.00000000 0.66666667 0.58823529 0.47058824
v 27.21000000 71.03000000 113.70000000 0.66666667 0.58823529 0.47058824
v 45.73000000 73.09000000 110.20000000 0.66666667 0.58823529 0.47058824
v 55.94000000 74.78000000 110.40000000 0.66666667 0.58823529 0.47058824
v 70.56000000 75.19000000 108.60000000 0.66666667 0.58823529 0.47058824
v 84.47000000 76.47000000 108.40000000 0.66666667 0.58823529 0.47058824
v 95.15000000 74.97000000 110.30000000 0.66666667 0.58823529 0.47058824
v 111.10000000 75.00000000 109.40000000 0.66666667 0.58823529 0.47058824
v 124.79000000 76.14000000 108.00000000 0.66666667 0.58823529 0.47058824
v 139.43000000 77.36000000 105.40000000 0.66666667 0.58823529 0.47058824
v 148.71000000 78.24000000 103.80000000 0.66666667 0.58823529 0.47058824
v 163.99000000 78.72000000 102.70000000 0.66666667 0.58823529 0.47058824
v 166.13000000 71.49000000 100.70000000 0.66666667 0.58823529 0.47058824
v 171.08000000 65.42000000 97.40000000 0.66666667 0.58823529 0.47058824
v 164.44000000 61.64000000 97.60000000 0.66666667 0.58823529 0.47058824
v 148.94000000 54.45000000 99.40000000 0.66666667 0.58823529 0.47058824
v 138.94000000 46.20000000 102.80000000 0.66666667 0.58823529 0.47058824
v 130.47000000 40.98000000 102.20000000 0.66666667 0.58823529 0.47058824
v 115.09000000 29.93000000 101.20000000 0.66666667 0.58823529 0.47058824
v 108.28000000 24.71000000 100.90000000 0.66666667 0.58823529 0.47058824
v 98.30000000 31.48000000 102.00000000 0.66666667 0.58823529 0.47058824
v 85.80000000 38.41000000 105.50000000 0.66666667 0.58823529 0.47058824
v 77.39000000 31.76000000 106.50000000 0.66666667 0.58823529 0.47058824
v 68.28000000 22.52000000 107.80000000 0.66666667 0.58823529 0.47058824
v 61.05000000 14.23000000 108.70000000 0.66666667 0.58823529 0.47058824
v 57.89000000 8.41000000 108.80000000 0.66666667 0.58823529 0.47058824
v 54.46000000 25.17000000 110.20000000 0.66666667 0.58823529 0.47058824
v 50.54000000 32.88000000 110.60000000 0.66666667 0.58823529 0.47058824
v 38.46000000 47.62000000 110.80000000 0.66666667 0.58823529 0.47058824
v 26.45000000 59.70000000 112.00000000 0.66666667 0.58823529 0.47058824
v 29.16000000 56.98000000 111.60000000 0.66666667 0.58823529 0.47058824
v 41.70000000 43.67000000 110.00000000 0.66666667 0.58823529 0.47058824
v 143.31000000 49.81000000 102.90000000 0.66666667 0.58823529 0.47058824
v 52.00000000 66.00000000 108.90000000 0.66666667 0.58823529 0.47058824
v 77.00000000 68.00000000 107.60000000 0.66666667 0.58823529 0.47058824
v 102.00000000 69.00000000 107.10000000 0.66666667 0.58823529 0.47058824
v 127.00000000 71.00000000 105.10000000 0.66666667 0.58823529 0.47058824
v 147.00000000 72.00000000 104.00000000 0.66666667 0.58823529 0.47058824
v 37.00000000 64.00000000 110.00000000 0.66666667 0.58823529 0.47058824
v 122.00000000 73.00000000 106.50000000 0.66666667 0.58823529 0.47058824
v 57.00000000 52.00000000 108.50000000 0.66666667 0.58823529 0.47058824
v 80.00000000 54.00000000 106.10000000 0.66666667 0.58823529 0.47058824
v 100.00000000 55.00000000 105.60000000 0.66666667 0.58823529 0.47058824
v 122.00000000 56.00000000 103.40000000 0.66666667 0.58823529 0.47058824
v 134.00000000 57.00000000 103.00000000 0.66666667 0.58823529 0.47058824
v 67.00000000 50.00000000 107.10000000 0.66666667 0.58823529 0.47058824
v 90.00000000 54.00000000 105.80000000 0.66666667 0.58823529 0.47058824
v 67.00000000 37.00000000 108.40000000 0.66666667 0.58823529 0.47058824
v 84.00000000 35.00000000 106.50000000 0.66666667 0.58823529 0.47058824
v 100.00000000 33.00000000 104.90000000 0.66666667 0.58823529 0.47058824
v 117.00000000 34.00000000 103.50000000 0.66666667 0.58823529 0.47058824
v 92.00000000 40.00000000 105.90000000 0.66666667 0.58823529 0.47058824
v 74.00000000 32.00000000 107.40000000 0.66666667 0.58823529 0.47058824
v 108.00000000 32.00000000 103.60000000 0.66666667 0.58823529 0.47058824
v 92.00000000 83.00000000 112.80000000 0.66666667 0.58823529 0.47058824
v 122.00000000 84.00000000 113.90000000 0.66666667 0.58823529 0.47058824
v 62.00000000 82.00000000 111.40000000 0.66666667 0.58823529 0.47058824
v 142.00000000 82.00000000 112.80000000 0.66666667 0.58823529 0.47058824
v 172.00000000 78.00000000 106.00000000 0.66666667 0.58823529 0.47058824
v 14.00000000 63.00000000 115.60000000 0.66666667 0.58823529 0.47058824
v 10.00000000 48.00000000 114.70000000 0.66666667 0.58823529 0.47058824
v 17.00000000 33.00000000 113.40000000 0.66666667 0.58823529 0.47058824
v 22.00000000 18.00000000 112.30000000 0.66666667 0.58823529 0.47058824
v 30.00000000 8.00000000 111.60000000 0.66666667 0.58823529 0.47058824
v 7.00000000 73.00000000 117.90000000 0.66666667 0.58823529 0.47058824
v 0.00000000 60.00000000 118.00000000 0.66666667 0.58823529 0.47058824
v 4.00000000 43.00000000 116.70000000 0.66666667 0.58823529 0.47058824
v 72.00000000 3.00000000 107.70000000 0.66666667 0.58823529 0.47058824
v 92.00000000 0.00000000 107.60000000 0.66666667 0.58823529 0.47058824
v 52.00000000 0.00000000 109.60000000 0.66666667 0.58823529 0.47058824
v 112.00000000 6.00000000 104.70000000 0.66666667 0.58823529 0.47058824
v 122.00000000 13.00000000 102.20000000 0.66666667 0.58823529 0.47058824
v 130.00000000 23.00000000 103.60000000 0.66666667 0.58823529 0.47058824
v 122.00000000 33.00000000 103.60000000 0.66666667 0.58823529 0.47058824
v 162.00000000 56.00000000 98.70000000 0.66666667 0.58823529 0.47058824
v 157.00000000 48.00000000 98.30000000 0.66666667 0.58823529 0.47058824
v 167.00000000 60.00000000 97.80000000 0.66666667 0.58823529 0.47058824
v 152.00000000 43.00000000 99.50000000 0.66666667 0.58823529 0.47058824
v 142.00000000 36.00000000 98.90000000 0.66666667 0.58823529 0.47058824
f 69 71 70
f 28 29 65
f 66 3 58
f 29 64 65
f 14 15 60
f 13 14 60
f 39 14 13
f 39 46 17
f 71 27 65
f 27 28 65
f 69 27 71
f 58 7 56
f 74 80 19
f 80 18 19
f 18 46 19
f 59 13 60
f 39 16 14
f 14 16 15
f 16 78 15
f 16 39 17
f 25 69 70
f 28 49 29
f 25 49 28
f 49 25 54
f 3 4 58
f 49 42 29
f 6 35 36
f 6 7 58
f 7 6 36
f 2 3 66
f 1 2 66
f 30 42 35
f 79 77 17
f 79 18 80
f 74 79 80
f 79 74 73
f 12 39 13
f 59 12 13
f 76 77 78
f 16 76 78
f 77 76 17
f 76 16 17
f 11 46 39
f 11 38 46
f 12 11 39
f 11 12 59
f 38 11 10
f 11 57 10
f 11 59 57
f 9 57 56
f 27 26 28
f 26 25 28
f 26 27 69
f 25 26 69
f 72 21 70
f 21 72 73
f 74 20 73
f 20 21 73
f 48 7 36
f 47 42 49
f 35 47 36
f 42 47 35
f 5 6 58
f 6 5 35
f 4 5 58
f 5 4 35
f 33 64 29
f 42 33 29
f 30 33 42
f 4 40 35
f 40 30 35
f 40 4 3
f 34 79 17
f 79 34 18
f 46 34 17
f 18 34 46
f 41 38 10
f 57 41 10
f 9 41 57
f 48 8 7
f 7 8 56
f 8 9 56
f 43 48 36
f 47 43 36
f 33 63 64
f 63 33 30
f 40 32 30
f 32 63 30
f 63 32 62
f 75 74 19
f 52 75 19
f 75 20 74
f 75 52 20
f 46 45 19
f 45 52 19
f 38 45 46
f 41 45 38
f 45 41 9
f 21 22 70
f 68 62 67
f 68 63 62
f 63 68 64
f 62 61 67
f 61 66 67
f 61 1 66
f 37 45 9
f 8 37 9
f 37 8 48
f 45 44 52
f 53 44 48
f 44 37 48
f 37 44 45
f 50 22 53
f 20 55 21
f 52 55 20
f 44 55 52
f 32 31 62
f 31 61 62
f 61 31 1
f 31 2 1
f 2 31 3
f 31 40 3
f 31 32 40
f 23 50 53
f 23 53 48
f 43 23 48
f 23 47 49
f 23 43 47
f 23 49 54
f 25 24 54
f 24 23 54
f 23 24 50
f 24 25 70
f 22 24 70
f 50 24 22
f 51 44 53
f 51 55 44
f 22 51 53
f 51 22 21
f 55 51 21

o geometry_1
v 88.28647059 71.98058824 107.25000000 0.82352941 0.35294118 0.35294118
v 18.58000000 68.33000000 107.25000000 0.82352941 0.35294118 0.35294118
v 22.39000000 70.76000000 107.25000000 0.82352941 0.35294118 0.35294118
v 27.21000000 71.03000000 107.25000000 0.82352941 0.35294118 0.35294118
v 45.73000000 73.09000000 107.25000000 0.82352941 0.35294118 0.35294118
v 55.94000000 74.78000000 107.25000000 0.82352941 0.35294118 0.35294118
v 70.56000000 75.19000000 107.25000000 0.82352941 0.35294118 0.35294118
v 84.47000000 76.47000000 107.25000000 0.82352941 0.35294118 0.35294118
v 95.15000000 74.97000000 107.25000000 0.82352941 0.35294118 0.35294118
v 111.10000000 75.00000000 107.25000000 0.82352941 0.35294118 0.35294118
v 124.79000000 76.14000000 107.25000000 0.82352941 0.35294118 0.35294118
v 139.43000000 77.36000000 107.25000000 0.82352941 0.35294118 0.35294118
v 148.71000000 78.24000000 107.25000000 0.82352941 0.35294118 0.35294118
v 163.99000000 78.72000000 107.25000000 0.82352941 0.35294118 0.35294118
v 166.13000000 71.49000000 107.25000000 0.82352941 0.35294118 0.35294118
v 171.08000000 65.42000000 107.25000000 0.82352941 0.35294118 0.35294118
v 29.16000000 56.98000000 107.25000000 0.82352941 0.35294118 0.35294118
v 26.45000000 59.70000000 107.25000000 0.82352941 0.35294118 0.35294118
f 81 82 83
f 81 83 84
f 81 84 85
f 81 85 86
f 81 86 87
f 81 87 88
f 81 88 89
f 81 89 90
f 81 90 91
f 81 91 92
f 81 92 93
f 81 93 94
f 81 94 95
f 81 95 96
f 81 96 97
f 81 97 98
f 81 98 82

o geometry_2
v 105.29857143 54.22714286 105.50000000 0.35294118 0.58823529 0.82352941
v 29.16000000 56.98000000 105.50000000 0.35294118 0.58823529 0.82352941
v 171.08000000 65.42000000 105.50000000 0.35294118 0.58823529 0.82352941
v 164.44000000 61.64000000 105.50000000 0.35294118 0.58823529 0.82352941
v 148.94000000 54.45000000 105.50000000 0.35294118 0.58823529 0.82352941
v 143.31000000 49.81000000 105.50000000 0.35294118 0.58823529 0.82352941
v 41.70000000 43.67000000 105.50000000 0.35294118 0.58823529 0.82352941
v 38.46000000 47.62000000 105.50000000 0.35294118 0.58823529 0.82352941
f 99 100 101
f 99 101 102
f 99 102 103
f 99 103 104
f 99 104 105
f 99 105 106
f 99 106 100

o geometry_3
v 87.96428571 31.44000000 106.25000000 0.47058824 0.78431373 0.47058824
v 41.70000000 43.67000000 106.25000000 0.47058824 0.78431373 0.47058824
v 143.31000000 49.81000000 106.25000000 0.47058824 0.78431373 0.47058824
v 138.94000000 46.20000000 106.25000000 0.47058824 0.78431373 0.47058824
v 130.47000000 40.98000000 106.25000000 0.47058824 0.78431373 0.47058824
v 115.09000000 29.93000000 106.25000000 0.47058824 0.78431373 0.47058824
v 108.28000000 24.71000000 106.25000000 0.47058824 0.78431373 0.47058824
v 98.30000000 31.48000000 106.25000000 0.47058824 0.78431373 0.47058824
v 85.80000000 38.41000000 106.25000000 0.47058824 0.78431373 0.47058824
v 77.39000000 31.76000000 106.25000000 0.47058824 0.78431373 0.47058824
v 68.28000000 22.52000000 106.25000000 0.47058824 0.78431373 0.47058824
v 61.05000000 14.23000000 106.25000000 0.47058824 0.78431373 0.47058824
v 57.89000000 8.41000000 106.25000000 0.47058824 0.78431373 0.47058824
v 54.46000000 25.17000000 106.25000000 0.47058824 0.78431373 0.47058824
v 50.54000000 32.88000000 106.25000000 0.47058824 0.78431373 0.47058824
f 107 108 109
f 107 109 110
f 107 110 111
f 107 111 112
f 107 112 113
f 107 113 114
f 107 114 115
f 107 115 116
f 107 116 117
f 107 117 118
f 107 118 119
f 107 119 120
f 107 120 121
f 107 121 108

