<COLLADA xmlns="http://www.collada.org/2005/11/COLLADASchema" version="1.4.1">
  <asset>
    <created>2026-09-08T19:32:16.309207</created>
    <modified>2026-09-08T19:32:16.309210</modified>
    <up_axis>Y_UP</up_axis>
  </asset>
  <library_effects>
    <effect id="8526a1d59d6b471f9a0ac1191011015b" name="8526a1d59d6b471f9a0ac1191011015b">
      <profile_COMMON>
        <technique sid="common">
          <phong>
            <emission>
              <color>0.0 0.0 0.0 1.0</color>
            </emission>
            <ambient>
              <color>0.0 0.0 0.0 1.0</color>
            </ambient>
            <diffuse>
              <color>0.6666666666666666 0.5882352941176471 0.47058823529411764 1.0</color>
            </diffuse>
            <specular>
              <color>0.0 0.0 0.0 1.0</color>
            </specular>
            <shininess>
              <float>0.0</float>
            </shininess>
            <reflective>
              <color>0.0 0.0 0.0 1.0</color>
            </reflective>
            <reflectivity>
              <float>0.0</float>
            </reflectivity>
            <transparent>
              <color>0.0 0.0 0.0 1.0</color>
            </transparent>
            <transparency>
              <float>1.0</float>
            </transparency>
          </phong>
        </technique>
        <extra>
          <technique profile="GOOGLEEARTH">
            <double_sided>0</double_sided>
          </technique>
        </extra>
      </profile_COMMON>
    </effect>
  </library_effects>
  <library_geometries>
    <geometry id="55cb419c9a7346f299daac0064437424" name="3085e8adcd6a47ce999734a7bd7238ca">
      <mesh>
        <source id="verts-array">
          <float_array count="363" id="verts-array-array">18.58 68.33 114.9 22.39 70.76 115 27.21 71.03 113.7 45.73 73.09 110.2 55.94 74.78 110.4 70.56 75.19 108.6 84.47 76.47 108.4 95.15 74.97 110.3 111.1 75 109.4 124.79 76.14 108 139.43 77.36 105.4 148.71 78.24 103.8 163.99 78.72 102.7 166.13 71.49 100.7 171.08 65.42 97.4 164.44 61.64 97.6 148.94 54.45 99.4 138.94 46.2 102.8 130.47 40.98 102.2 115.09 29.93 101.2 108.28 24.71 100.9 98.3 31.48 102 85.8 38.41 105.5 77.39 31.76 106.5 68.28 22.52 107.8 61.05 14.23 108.7 57.89 8.41 108.8 54.46 25.17 110.2 50.54 32.88 110.6 38.46 47.62 110.8 26.45 59.7 112 29.16 56.98 111.6 41.7 43.67 110 143.31 49.81 102.9 52 66 108.9 77 68 107.6 102 69 107.1 127 71 105.1 147 72 104 37 64 110 122 73 106.5 57 52 108.5 80 54 106.1 100 55 105.6 122 56 103.4 134 57 103 67 50 107.1 90 54 105.8 67 37 108.4 84 35 106.5 100 33 104.9 117 34 103.5 92 40 105.9 74 32 107.4 108 32 103.6 92 83 112.8 122 84 113.9 62 82 111.4 142 82 112.8 172 78 106 14 63 115.6 10 48 114.7 17 33 113.4 22 18 112.3 30 8 111.6 7 73 117.9 0 60 118 4 43 116.7 72 3 107.7 92 0 107.6 52 0 109.6 112 6 104.7 122 13 102.2 130 23 103.6 122 33 103.6 162 56 98.7 157 48 98.3 167 60 97.8 152 43 99.5 142 36 98.9 88.28647 71.98059 107.25 18.58 68.33 107.25 22.39 70.76 107.25 27.21 71.03 107.25 45.73 73.09 107.25 55.94 74.78 107.25 70.56 75.19 107.25 84.47 76.47 107.25 95.15 74.97 107.25 111.1 75 107.25 124.79 76.14 107.25 139.43 77.36 107.25 148.71 78.24 107.25 163.99 78.72 107.25 166.13 71.49 107.25 171.08 65.42 107.25 29.16 56.98 107.25 26.45 59.7 107.25 105.2986 54.22714 105.5 29.16 56.98 105.5 171.08 65.42 105.5 164.44 61.64 105.5 148.94 54.45 105.5 143.31 49.81 105.5 41.7 43.67 105.5 38.46 47.62 105.5 87.96429 31.44 106.25 41.7 43.67 106.25 143.31 49.81 106.25 138.94 46.2 106.25 130.47 40.98 106.25 115.09 29.93 106.25 108.28 24.71 106.25 98.3 31.48 106.25 85.8 38.41 106.25 77.39 31.76 106.25 68.28 22.52 106.25 61.05 14.23 106.25 57.89 8.41 106.25 54.46 25.17 106.25 50.54 32.88 106.25</float_array>
          <technique_common>
            <accessor count="121" source="#verts-array-array" stride="3">
              <param type="float" name="X"/>
              <param type="float" name="Y"/>
              <param type="float" name="Z"/>
            </accessor>
          </technique_common>
        </source>
        <source id="normals-array">
          <float_array count="363" id="normals-array-array">0.1794968 -0.1750144 0.9680655 0.2076821 0.06348454 0.9761341 0.2104193 -0.2371315 0.9484157 0.1409597 -0.3088789 0.9405978 0.06019897 -0.1852287 0.9808498 0.06068997 -0.2106045 0.9756856 -0.06750526 -0.3192873 0.9452506 -0.02361346 -0.2852857 0.9581516 0.04487037 -0.3840848 0.9222069 0.1656001 -0.5116882 0.843061 0.1026151 -0.5236032 0.8457599 0.1171291 -0.5251008 0.8429412 -0.1038579 -0.7235457 0.6824186 -0.003734145 -0.387473 0.9218735 0.08392445 -0.33266 0.9393051 0.1041287 -0.06834208 0.992213 0.2366042 -0.01918109 0.9714168 0.06764325 -0.1708682 0.9829692 0.1165943 -0.03838647 0.9924375 -0.01339685 -0.27112 0.9624523 0.08333807 -0.03595216 0.9958726 -0.08989583 -0.3299108 0.9397221 -0.03516818 0.1578344 0.9868391 0.1891958 -0.0587075 0.9801828 0.1170057 -8.954127e-05 0.9931312 0.1197697 -0.02604513 0.99246 0.09401098 -0.01169821 0.9955024 0.1179168 -0.02497291 0.9927094 0.07511033 0.04101524 0.9963314 0.1294596 -0.01273539 0.9915029 0.2028095 -0.07077341 0.9766573 0.1494582 0.02740032 0.9883883 0.1004571 -0.002438878 0.9949384 0.2302288 0.05195737 0.9717485 0.07768954 -0.07554605 0.9941112 0.04246354 -0.09617721 0.994458 0.08777438 -0.2813498 0.9555825 0.1232045 -0.2549818 0.9590646 0.1436611 -0.1376628 0.9800053 0.1537289 -0.07169915 0.9855083 0.1599146 -0.3645036 0.9173682 0.1240803 0.04118327 0.9914172 0.06182471 -0.05825498 0.9963855 0.06749282 -0.06832795 0.9953773 0.08531 -0.1001399 0.9913093 0.07733168 -0.0757723 0.9941219 0.1166961 0.02251307 0.9929125 0.01672707 -0.07039543 0.9973789 0.1394121 0.04105035 0.9893832 0.02131321 -0.008317068 0.9997383 -0.1594993 -0.4084211 0.8987503 0.02570145 -0.2204116 0.9750683 0.04128662 -0.09322624 0.9947886 0.1833145 -0.05358899 0.9815926 0.1188836 -0.2364013 0.9643553 -0.07244279 -0.3995826 0.9138303 0.08627651 -0.5755932 0.8131721 0.09325203 -0.2991571 0.9496363 0.027131 -0.8779377 0.4780056 -0.2617487 -0.6807976 0.6841069 0.2224294 -0.09753023 0.9700583 0.2393603 -0.02225647 0.9706757 0.2015923 0.001766884 0.9794679 0.1052549 -0.002820484 0.9944413 0.07983274 -0.02091212 0.9965889 0.1914293 -0.122455 0.9738376 0.2146031 -0.08192719 0.9732592 0.2922373 0.02491387 0.9560213 0.04552697 0.1323255 0.9901602 0.1060546 0.1230027 0.9867232 0.0940215 0.04148128 0.9947056 0.08318321 0.2142039 0.9732406 0.01465136 0.06029816 0.9980729 0.311816 -0.2903023 0.9047073 -0.05437371 -0.02979214 0.9980761 0.2013758 -0.06817073 0.977139 0.135979 -0.0306226 0.9902383 0.03210629 0.0981445 0.9946541 0.2116764 -0.04132636 0.9764657 -0.1455384 0.2580365 0.9551103 0 0 -1 0 0 -1 0 0 -1 0 0 -1 0 0 -1 0 0 -1 0 0 -1 0 0 -1 0 0 -1 0 0 -1 0 0 -1 0 0 -1 0 0 -1 0 0 -1 0 0 -1 0 0 -1 0 0 -1 0 0 -1 0 0 -1 0 0 -1 0 0 -1 0 0 -1 0 0 -1 0 0 -1 0 0 -1 0 0 -1 0 0 2.665179e-29 0 0 -1 0 0 -1 0 0 -1 0 0 -1 0 0 -1 0 0 -1 0 0 1 0 0 1 0 0 1 0 0 1 0 0 1 0 0 -1 0 0 -1 0 0 -1</float_array>
          <technique_common>
            <accessor count="121" source="#normals-array-array" stride="3">
              <param type="float" name="X"/>
              <param type="float" name="Y"/>
              <param type="float" name="Z"/>
            </accessor>
          </technique_common>
        </source>
        <vertices id="verts-array-vertices">
          <input semantic="POSITION" source="#verts-array"/>
        </vertices>
        <triangles count="178" material="material0">
          <input offset="0" semantic="VERTEX" source="#verts-array-vertices"/>
          <input offset="1" semantic="NORMAL" source="#normals-array"/>
          <p>68 68 70 70 69 69 27 27 28 28 64 64 65 65 2 2 57 57 28 28 63 63 64 64 13 13 14 14 59 59 12 12 13 13 59 59 38 38 13 13 12 12 38 38 45 45 16 16 70 70 26 26 64 64 26 26 27 27 64 64 68 68 26 26 70 70 57 57 6 6 55 55 73 73 79 79 18 18 79 79 17 17 18 18 17 17 45 45 18 18 58 58 12 12 59 59 38 38 15 15 13 13 13 13 15 15 14 14 15 15 77 77 14 14 15 15 38 38 16 16 24 24 68 68 69 69 27 27 48 48 28 28 24 24 48 48 27 27 48 48 24 24 53 53 2 2 3 3 57 57 48 48 41 41 28 28 5 5 34 34 35 35 5 5 6 6 57 57 6 6 5 5 35 35 1 1 2 2 65 65 0 0 1 1 65 65 29 29 41 41 34 34 78 78 76 76 16 16 78 78 17 17 79 79 73 73 78 78 79 79 78 78 73 73 72 72 11 11 38 38 12 12 58 58 11 11 12 12 75 75 76 76 77 77 15 15 75 75 77 77 76 76 75 75 16 16 75 75 15 15 16 16 10 10 45 45 38 38 10 10 37 37 45 45 11 11 10 10 38 38 10 10 11 11 58 58 37 37 10 10 9 9 10 10 56 56 9 9 10 10 58 58 56 56 8 8 56 56 55 55 26 26 25 25 27 27 25 25 24 24 27 27 25 25 26 26 68 68 24 24 25 25 68 68 71 71 20 20 69 69 20 20 71 71 72 72 73 73 19 19 72 72 19 19 20 20 72 72 47 47 6 6 35 35 46 46 41 41 48 48 34 34 46 46 35 35 41 41 46 46 34 34 4 4 5 5 57 57 5 5 4 4 34 34 3 3 4 4 57 57 4 4 3 3 34 34 32 32 63 63 28 28 41 41 32 32 28 28 29 29 32 32 41 41 3 3 39 39 34 34 39 39 29 29 34 34 39 39 3 3 2 2 33 33 78 78 16 16 78 78 33 33 17 17 45 45 33 33 16 16 17 17 33 33 45 45 40 40 37 37 9 9 56 56 40 40 9 9 8 8 40 40 56 56 47 47 7 7 6 6 6 6 7 7 55 55 7 7 8 8 55 55 42 42 47 47 35 35 46 46 42 42 35 35 32 32 62 62 63 63 62 62 32 32 29 29 39 39 31 31 29 29 31 31 62 62 29 29 62 62 31 31 61 61 74 74 73 73 18 18 51 51 74 74 18 18 74 74 19 19 73 73 74 74 51 51 19 19 45 45 44 44 18 18 44 44 51 51 18 18 37 37 44 44 45 45 40 40 44 44 37 37 44 44 40 40 8 8 20 20 21 21 69 69 67 67 61 61 66 66 67 67 62 62 61 61 62 62 67 67 63 63 61 61 60 60 66 66 60 60 65 65 66 66 60 60 0 0 65 65 36 36 44 44 8 8 7 7 36 36 8 8 36 36 7 7 47 47 44 44 43 43 51 51 52 52 43 43 47 47 43 43 36 36 47 47 36 36 43 43 44 44 49 49 21 21 52 52 19 19 54 54 20 20 51 51 54 54 19 19 43 43 54 54 51 51 31 31 30 30 61 61 30 30 60 60 61 61 60 60 30 30 0 0 30 30 1 1 0 0 1 1 30 30 2 2 30 30 39 39 2 2 30 30 31 31 39 39 22 22 49 49 52 52 22 22 52 52 47 47 42 42 22 22 47 47 22 22 46 46 48 48 22 22 42 42 46 46 22 22 48 48 53 53 24 24 23 23 53 53 23 23 22 22 53 53 22 22 23 23 49 49 23 23 24 24 69 69 21 21 23 23 69 69 49 49 23 23 21 21 50 50 43 43 52 52 50 50 54 54 43 43 21 21 50 50 52 52 50 50 21 21 20 20 54 54 50 50 20 20 80 80 81 81 82 82 80 80 82 82 83 83 80 80 83 83 84 84 80 80 84 84 85 85 80 80 85 85 86 86 80 80 86 86 87 87 80 80 87 87 88 88 80 80 88 88 89 89 80 80 89 89 90 90 80 80 90 90 91 91 80 80 91 91 92 92 80 80 92 92 93 93 80 80 93 93 94 94 80 80 94 94 95 95 80 80 95 95 96 96 80 80 96 96 97 97 80 80 97 97 81 81 98 98 99 99 100 100 98 98 100 100 101 101 98 98 101 101 102 102 98 98 102 102 103 103 98 98 103 103 104 104 98 98 104 104 105 105 98 98 105 105 99 99 106 106 107 107 108 108 106 106 108 108 109 109 106 106 109 109 110 110 106 106 110 110 111 111 106 106 111 111 112 112 106 106 112 112 113 113 106 106 113 113 114 114 106 106 114 114 115 115 106 106 115 115 116 116 106 106 116 116 117 117 106 106 117 117 118 118 106 106 118 118 119 119 106 106 119 119 120 120 106 106 120 120 107 107</p>
        </triangles>
      </mesh>
    </geometry>
  </library_geometries>
  <library_materials>
    <material id="f62af4a60aa7465aae044ec112ba29d5" name="defaultmaterial">
      <instance_effect url="#8526a1d59d6b471f9a0ac1191011015b"/>
    </material>
  </library_materials>
  <library_visual_scenes>
    <visual_scene id="scene">
      <node id="node0" name="node0">
        <instance_geometry url="#55cb419c9a7346f299daac0064437424">
          <bind_material>
            <technique_common>
              <instance_material symbol="material0" target="#f62af4a60aa7465aae044ec112ba29d5"/>
            </technique_common>
          </bind_material>
        </instance_geometry>
      </node>
    </visual_scene>
  </library_visual_scenes>
  <scene>
    <instance_visual_scene url="#scene"/>
  </scene>
</COLLADA>
