  0
SECTION
  2
HEADER
  9
$ACADVER
  1
AC1024
  9
$ACADMAINTVER
 70
6
  9
$DWGCODEPAGE
  3
ANSI_1252
  9
$LASTSAVEDBY
  1
ezdxf
  9
$INSBASE
 10
0.0
 20
0.0
 30
0.0
  9
$EXTMIN
 10
1e+20
 20
1e+20
 30
1e+20
  9
$EXTMAX
 10
-1e+20
 20
-1e+20
 30
-1e+20
  9
$LIMMIN
 10
0.0
 20
0.0
  9
$LIMMAX
 10
420.0
 20
297.0
  9
$ORTHOMODE
 70
0
  9
$REGENMODE
 70
1
  9
$FILLMODE
 70
1
  9
$QTEXTMODE
 70
0
  9
$MIRRTEXT
 70
1
  9
$LTSCALE
 40
1.0
  9
$ATTMODE
 70
1
  9
$TEXTSIZE
 40
2.5
  9
$TRACEWID
 40
1.0
  9
$TEXTSTYLE
  7
OpenSans
  9
$CLAYER
  8
0
  9
$CELTYPE
  6
ByLayer
  9
$CECOLOR
 62
256
  9
$CELTSCALE
 40
1.0
  9
$DISPSILH
 70
0
  9
$DIMSCALE
 40
1.0
  9
$DIMASZ
 40
0.175
  9
$DIMEXO
 40
0.125
  9
$DIMDLI
 40
3.75
  9
$DIMRND
 40
0.0
  9
$DIMDLE
 40
0.0
  9
$DIMEXE
 40
0.375
  9
$DIMTP
 40
0.0
  9
$DIMTM
 40
0.0
  9
$DIMTXT
 40
0.25
  9
$DIMCEN
 40
2.5
  9
$DIMTSZ
 40
0.0
  9
$DIMTOL
 70
0
  9
$DIMLIM
 70
0
  9
$DIMTIH
 70
0
  9
$DIMTOH
 70
0
  9
$DIMSE1
 70
0
  9
$DIMSE2
 70
0
  9
$DIMTAD
 70
1
  9
$DIMZIN
 70
12
  9
$DIMBLK
  1
ARCHTICK
  9
$DIMASO
 70
1
  9
$DIMSHO
 70
1
  9
$DIMPOST
  1

  9
$DIMAPOST
  1

  9
$DIMALT
 70
0
  9
$DIMALTD
 70
3
  9
$DIMALTF
 40
0.03937007874
  9
$DIMLFAC
 40
100.0
  9
$DIMTOFL
 70
1
  9
$DIMTVP
 40
0.0
  9
$DIMTIX
 70
0
  9
$DIMSOXD
 70
0
  9
$DIMSAH
 70
0
  9
$DIMBLK1
  1

  9
$DIMBLK2
  1

  9
$DIMSTYLE
  2
EZDXF
  9
$DIMCLRD
 70
0
  9
$DIMCLRE
 70
0
  9
$DIMCLRT
 70
0
  9
$DIMTFAC
 40
0.5
  9
$DIMGAP
 40
0.1
  9
$DIMJUST
 70
0
  9
$DIMSD1
 70
0
  9
$DIMSD2
 70
0
  9
$DIMTOLJ
 70
0
  9
$DIMTZIN
 70
8
  9
$DIMALTZ
 70
0
  9
$DIMALTTZ
 70
0
  9
$DIMUPT
 70
1
  9
$DIMDEC
 70
2
  9
$DIMTDEC
 70
2
  9
$DIMALTU
 70
2
  9
$DIMALTTD
 70
3
  9
$DIMTXSTY
  7
OpenSansCondensed-Light
  9
$DIMAUNIT
 70
0
  9
$DIMADEC
 70
2
  9
$DIMALTRND
 40
0.0
  9
$DIMAZIN
 70
3
  9
$DIMDSEP
 70
46
  9
$DIMATFIT
 70
3
  9
$DIMFRAC
 70
0
  9
$DIMLDRBLK
  1

  9
$DIMLUNIT
 70
2
  9
$DIMLWD
 70
-2
  9
$DIMLWE
 70
-2
  9
$DIMTMOVE
 70
2
  9
$DIMFXL
 40
1.0
  9
$DIMFXLON
 70
0
  9
$DIMJOGANG
 40
0.785398163397
  9
$DIMTFILL
 70
0
  9
$DIMTFILLCLR
 70
0
  9
$DIMARCSYM
 70
0
  9
$DIMLTYPE
  6

  9
$DIMLTEX1
  6

  9
$DIMLTEX2
  6

  9
$DIMTXTDIRECTION
 70
0
  9
$LUNITS
 70
2
  9
$LUPREC
 70
4
  9
$SKETCHINC
 40
1.0
  9
$FILLETRAD
 40
10.0
  9
$AUNITS
 70
0
  9
$AUPREC
 70
2
  9
$MENU
  1
.
  9
$ELEVATION
 40
0.0
  9
$PELEVATION
 40
0.0
  9
$THICKNESS
 40
0.0
  9
$LIMCHECK
 70
0
  9
$CHAMFERA
 40
0.0
  9
$CHAMFERB
 40
0.0
  9
$CHAMFERC
 40
0.0
  9
$CHAMFERD
 40
0.0
  9
$SKPOLY
 70
0
  9
$TDCREATE
 40
2461291.4483449073
  9
$TDUCREATE
 40
2458532.153996898
  9
$TDUPDATE
 40
2461291.4483449073
  9
$TDUUPDATE
 40
2458532.1544311
  9
$TDINDWG
 40
0.0
  9
$TDUSRTIMER
 40
0.0
  9
$USRTIMER
 70
1
  9
$ANGBASE
 50
0.0
  9
$ANGDIR
 70
0
  9
$PDMODE
 70
0
  9
$PDSIZE
 40
0.0
  9
$PLINEWID
 40
0.0
  9
$SPLFRAME
 70
0
  9
$SPLINETYPE
 70
6
  9
$SPLINESEGS
 70
8
  9
$HANDSEED
  5
10B
  9
$SURFTAB1
 70
6
  9
$SURFTAB2
 70
6
  9
$SURFTYPE
 70
6
  9
$SURFU
 70
6
  9
$SURFV
 70
6
  9
$UCSBASE
  2

  9
$UCSNAME
  2

  9
$UCSORG
 10
0.0
 20
0.0
 30
0.0
  9
$UCSXDIR
 10
1.0
 20
0.0
 30
0.0
  9
$UCSYDIR
 10
0.0
 20
1.0
 30
0.0
  9
$UCSORTHOREF
  2

  9
$UCSORTHOVIEW
 70
0
  9
$UCSORGTOP
 10
0.0
 20
0.0
 30
0.0
  9
$UCSORGBOTTOM
 10
0.0
 20
0.0
 30
0.0
  9
$UCSORGLEFT
 10
0.0
 20
0.0
 30
0.0
  9
$UCSORGRIGHT
 10
0.0
 20
0.0
 30
0.0
  9
$UCSORGFRONT
 10
0.0
 20
0.0
 30
0.0
  9
$UCSORGBACK
 10
0.0
 20
0.0
 30
0.0
  9
$PUCSBASE
  2

  9
$PUCSNAME
  2

  9
$PUCSORG
 10
0.0
 20
0.0
 30
0.0
  9
$PUCSXDIR
 10
1.0
 20
0.0
 30
0.0
  9
$PUCSYDIR
 10
0.0
 20
1.0
 30
0.0
  9
$PUCSORTHOREF
  2

  9
$PUCSORTHOVIEW
 70
0
  9
$PUCSORGTOP
 10
0.0
 20
0.0
 30
0.0
  9
$PUCSORGBOTTOM
 10
0.0
 20
0.0
 30
0.0
  9
$PUCSORGLEFT
 10
0.0
 20
0.0
 30
0.0
  9
$PUCSORGRIGHT
 10
0.0
 20
0.0
 30
0.0
  9
$PUCSORGFRONT
 10
0.0
 20
0.0
 30
0.0
  9
$PUCSORGBACK
 10
0.0
 20
0.0
 30
0.0
  9
$USERI1
 70
0
  9
$USERI2
 70
0
  9
$USERI3
 70
0
  9
$USERI4
 70
0
  9
$USERI5
 70
0
  9
$USERR1
 40
0.0
  9
$USERR2
 40
0.0
  9
$USERR3
 40
0.0
  9
$USERR4
 40
0.0
  9
$USERR5
 40
0.0
  9
$WORLDVIEW
 70
1
  9
$SHADEDGE
 70
3
  9
$SHADEDIF
 70
70
  9
$TILEMODE
 70
1
  9
$MAXACTVP
 70
64
  9
$PINSBASE
 10
0.0
 20
0.0
 30
0.0
  9
$PLIMCHECK
 70
0
  9
$PEXTMIN
 10
1e+20
 20
1e+20
 30
1e+20
  9
$PEXTMAX
 10
-1e+20
 20
-1e+20
 30
-1e+20
  9
$PLIMMIN
 10
0.0
 20
0.0
  9
$PLIMMAX
 10
420.0
 20
297.0
  9
$UNITMODE
 70
0
  9
$VISRETAIN
 70
1
  9
$PLINEGEN
 70
0
  9
$PSLTSCALE
 70
1
  9
$TREEDEPTH
 70
3020
  9
$CMLSTYLE
  2
Standard
  9
$CMLJUST
 70
0
  9
$CMLSCALE
 40
20.0
  9
$PROXYGRAPHICS
 70
1
  9
$MEASUREMENT
 70
1
  9
$CELWEIGHT
370
-1
  9
$ENDCAPS
280
0
  9
$JOINSTYLE
280
0
  9
$LWDISPLAY
290
0
  9
$INSUNITS
 70
6
  9
$HYPERLINKBASE
  1

  9
$STYLESHEET
  1

  9
$XEDIT
290
1
  9
$CEPSNTYPE
380
0
  9
$PSTYLEMODE
290
1
  9
$FINGERPRINTGUID
  2
{296B435F-8446-4B01-BCEC-9E1B0A01FF78}
  9
$VERSIONGUID
  2
{F60805FB-152B-4810-B8F5-E7B3EDEC5270}
  9
$EXTNAMES
290
1
  9
$PSVPSCALE
 40
0.0
  9
$OLESTARTUP
290
0
  9
$SORTENTS
280
127
  9
$INDEXCTL
280
0
  9
$HIDETEXT
280
1
  9
$XCLIPFRAME
280
1
  9
$HALOGAP
280
0
  9
$OBSCOLOR
 70
257
  9
$OBSLTYPE
280
0
  9
$INTERSECTIONDISPLAY
280
0
  9
$INTERSECTIONCOLOR
 70
257
  9
$DIMASSOC
280
2
  9
$PROJECTNAME
  1

  9
$CAMERADISPLAY
290
0
  9
$LENSLENGTH
 40
50.0
  9
$CAMERAHEIGHT
 40
0.0
  9
$STEPSPERSEC
 40
24.0
  9
$STEPSIZE
 40
100.0
  9
$3DDWFPREC
 40
2.0
  9
$PSOLWIDTH
 40
0.005
  9
$PSOLHEIGHT
 40
0.08
  9
$LOFTANG1
 40
1.570796326795
  9
$LOFTANG2
 40
1.570796326795
  9
$LOFTMAG1
 40
0.0
  9
$LOFTMAG2
 40
0.0
  9
$LOFTPARAM
 70
7
  9
$LOFTNORMALS
280
1
  9
$LATITUDE
 40
37.795
  9
$LONGITUDE
 40
-122.394
  9
$NORTHDIRECTION
 40
0.0
  9
$TIMEZONE
 70
-8000
  9
$LIGHTGLYPHDISPLAY
280
1
  9
$TILEMODELIGHTSYNCH
280
1
  9
$CMATERIAL
347
20
  9
$SOLIDHIST
280
0
  9
$SHOWHIST
280
1
  9
$DWFFRAME
280
2
  9
$DGNFRAME
280
2
  9
$REALWORLDSCALE
290
1
  9
$INTERFERECOLOR
 62
256
  9
$CSHADOW
280
0
  9
$SHADOWPLANELOCATION
 40
0.0
  0
ENDSEC
  0
SECTION
  2
CLASSES
  0
CLASS
  1
ACDBDICTIONARYWDFLT
  2
AcDbDictionaryWithDefault
  3
ObjectDBX Classes
 90
0
 91
0
280
0
281
0
  0
CLASS
  1
SUN
  2
AcDbSun
  3
SCENEOE
 90
1153
 91
0
280
0
281
0
  0
CLASS
  1
VISUALSTYLE
  2
AcDbVisualStyle
  3
ObjectDBX Classes
 90
4095
 91
0
280
0
281
0
  0
CLASS
  1
MATERIAL
  2
AcDbMaterial
  3
ObjectDBX Classes
 90
1153
 91
0
280
0
281
0
  0
CLASS
  1
SCALE
  2
AcDbScale
  3
ObjectDBX Classes
 90
1153
 91
0
280
0
281
0
  0
CLASS
  1
TABLESTYLE
  2
AcDbTableStyle
  3
ObjectDBX Classes
 90
4095
 91
0
280
0
281
0
  0
CLASS
  1
MLEADERSTYLE
  2
AcDbMLeaderStyle
  3
ACDB_MLEADERSTYLE_CLASS
 90
4095
 91
0
280
0
281
0
  0
CLASS
  1
DICTIONARYVAR
  2
AcDbDictionaryVar
  3
ObjectDBX Classes
 90
0
 91
0
280
0
281
0
  0
CLASS
  1
CELLSTYLEMAP
  2
AcDbCellStyleMap
  3
ObjectDBX Classes
 90
1152
 91
0
280
0
281
0
  0
CLASS
  1
MENTALRAYRENDERSETTINGS
  2
AcDbMentalRayRenderSettings
  3
SCENEOE
 90
1024
 91
0
280
0
281
0
  0
CLASS
  1
ACDBDETAILVIEWSTYLE
  2
AcDbDetailViewStyle
  3
ObjectDBX Classes
 90
1025
 91
0
280
0
281
0
  0
CLASS
  1
ACDBSECTIONVIEWSTYLE
  2
AcDbSectionViewStyle
  3
ObjectDBX Classes
 90
1025
 91
0
280
0
281
0
  0
CLASS
  1
RASTERVARIABLES
  2
AcDbRasterVariables
  3
ISM
 90
0
 91
0
280
0
281
0
  0
CLASS
  1
ACDBPLACEHOLDER
  2
AcDbPlaceHolder
  3
ObjectDBX Classes
 90
0
 91
0
280
0
281
0
  0
CLASS
  1
LAYOUT
  2
AcDbLayout
  3
ObjectDBX Classes
 90
0
 91
0
280
0
281
0
  0
ENDSEC
  0
SECTION
  2
TABLES
  0
TABLE
  2
VPORT
  5
8
330
0
100
AcDbSymbolTable
 70
1
  0
VPORT
  5
23
330
8
100
AcDbSymbolTableRecord
100
AcDbViewportTableRecord
  2
*Active
 70
0
 10
0.0
 20
0.0
 11
1.0
 21
1.0
 12
0.0
 22
0.0
 13
0.0
 23
0.0
 14
0.5
 24
0.5
 15
0.5
 25
0.5
 16
0.0
 26
0.0
 36
1.0
 17
0.0
 27
0.0
 37
0.0
 40
1000.0
 41
1.34
 42
50.0
 43
0.0
 44
0.0
 50
0.0
 51
0.0
 71
0
 72
1000
 73
1
 74
3
 75
0
 76
0
 77
0
 78
0
281
0
 65
0
146
0.0
  0
ENDTAB
  0
TABLE
  2
LTYPE
  5
2
330
0
100
AcDbSymbolTable
 70
21
  0
LTYPE
  5
24
330
2
100
AcDbSymbolTableRecord
100
AcDbLinetypeTableRecord
  2
ByBlock
 70
0
  3

 72
65
 73
0
 40
0.0
  0
LTYPE
  5
25
330
2
100
AcDbSymbolTableRecord
100
AcDbLinetypeTableRecord
  2
ByLayer
 70
0
  3

 72
65
 73
0
 40
0.0
  0
LTYPE
  5
26
330
2
100
AcDbSymbolTableRecord
100
AcDbLinetypeTableRecord
  2
Continuous
 70
0
  3

 72
65
 73
0
 40
0.0
  0
LTYPE
  5
2F
330
2
100
AcDbSymbolTableRecord
100
AcDbLinetypeTableRecord
  2
CENTER
 70
0
  3
Center ____ _ ____ _ ____ _ ____ _ ____ _ ____
 72
65
 73
4
 40
5.08
 49
3.175
 74
0
 49
-0.635
 74
0
 49
0.635
 74
0
 49
-0.635
 74
0
  0
LTYPE
  5
30
330
2
100
AcDbSymbolTableRecord
100
AcDbLinetypeTableRecord
  2
CENTERX2
 70
0
  3
Center (2x) ________  __  ________  __  ________
 72
65
 73
4
 40
8.89
 49
6.35
 74
0
 49
-0.635
 74
0
 49
1.27
 74
0
 49
-0.635
 74
0
  0
LTYPE
  5
31
330
2
100
AcDbSymbolTableRecord
100
AcDbLinetypeTableRecord
  2
CENTER2
 70
0
  3
Center (.5x) ____ _ ____ _ ____ _ ____ _ ____
 72
65
 73
4
 40
2.54
 49
1.587
 74
0
 49
-0.318
 74
0
 49
0.318
 74
0
 49
-0.318
 74
0
  0
LTYPE
  5
32
330
2
100
AcDbSymbolTableRecord
100
AcDbLinetypeTableRecord
  2
DASHED
 70
0
  3
Dashed __ __ __ __ __ __ __ __ __ __ __ __ __ _
 72
65
 73
2
 40
1.524
 49
1.27
 74
0
 49
-0.254
 74
0
  0
LTYPE
  5
33
330
2
100
AcDbSymbolTableRecord
100
AcDbLinetypeTableRecord
  2
DASHEDX2
 70
0
  3
Dashed (2x) ____  ____  ____  ____  ____  ____
 72
65
 73
2
 40
3.048
 49
2.54
 74
0
 49
-0.508
 74
0
  0
LTYPE
  5
34
330
2
100
AcDbSymbolTableRecord
100
AcDbLinetypeTableRecord
  2
DASHED2
 70
0
  3
Dashed (.5x) _ _ _ _ _ _ _ _ _ _ _ _ _ _
 72
65
 73
2
 40
0.762
 49
0.635
 74
0
 49
-0.127
 74
0
  0
LTYPE
  5
35
330
2
100
AcDbSymbolTableRecord
100
AcDbLinetypeTableRecord
  2
PHANTOM
 70
0
  3
Phantom ______  __  __  ______  __  __  ______
 72
65
 73
6
 40
6.35
 49
3.175
 74
0
 49
-0.635
 74
0
 49
0.635
 74
0
 49
-0.635
 74
0
 49
0.635
 74
0
 49
-0.635
 74
0
  0
LTYPE
  5
36
330
2
100
AcDbSymbolTableRecord
100
AcDbLinetypeTableRecord
  2
PHANTOMX2
 70
0
  3
Phantom (2x)____________    ____    ____    ____________
 72
65
 73
6
 40
10.795
 49
6.35
 74
0
 49
-0.635
 74
0
 49
1.27
 74
0
 49
-0.635
 74
0
 49
1.27
 74
0
 49
-0.635
 74
0
  0
LTYPE
  5
37
330
2
100
AcDbSymbolTableRecord
100
AcDbLinetypeTableRecord
  2
PHANTOM2
 70
0
  3
Phantom (.5x) ___ _ _ ___ _ _ ___ _ _ ___ _ _ ___
 72
65
 73
6
 40
3.175
 49
1.587
 74
0
 49
-0.318
 74
0
 49
0.318
 74
0
 49
-0.318
 74
0
 49
0.318
 74
0
 49
-0.318
 74
0
  0
LTYPE
  5
38
330
2
100
AcDbSymbolTableRecord
100
AcDbLinetypeTableRecord
  2
DASHDOT
 70
0
  3
Dash dot __ . __ . __ . __ . __ . __ . __ . __
 72
65
 73
4
 40
3.556
 49
2.54
 74
0
 49
-0.508
 74
0
 49
0.0
 74
0
 49
-0.508
 74
0
  0
LTYPE
  5
39
330
2
100
AcDbSymbolTableRecord
100
AcDbLinetypeTableRecord
  2
DASHDOTX2
 70
0
  3
Dash dot (2x) ____  .  ____  .  ____  .  ____
 72
65
 73
4
 40
6.096
 49
5.08
 74
0
 49
-0.508
 74
0
 49
0.0
 74
0
 49
-0.508
 74
0
  0
LTYPE
  5
3A
330
2
100
AcDbSymbolTableRecord
100
AcDbLinetypeTableRecord
  2
DASHDOT2
 70
0
  3
Dash dot (.5x) _ . _ . _ . _ . _ . _ . _ . _
 72
65
 73
4
 40
1.778
 49
1.27
 74
0
 49
-0.254
 74
0
 49
0.0
 74
0
 49
-0.254
 74
0
  0
LTYPE
  5
3B
330
2
100
AcDbSymbolTableRecord
100
AcDbLinetypeTableRecord
  2
DOT
 70
0
  3
Dot .  .  .  .  .  .  .  .  .  .  .  .  .  .  .  .
 72
65
 73
2
 40
0.508
 49
0.0
 74
0
 49
-0.508
 74
0
  0
LTYPE
  5
3C
330
2
100
AcDbSymbolTableRecord
100
AcDbLinetypeTableRecord
  2
DOTX2
 70
0
  3
Dot (2x) .    .    .    .    .    .    .    . 
 72
65
 73
2
 40
1.016
 49
0.0
 74
0
 49
-1.016
 74
0
  0
LTYPE
  5
3D
330
2
100
AcDbSymbolTableRecord
100
AcDbLinetypeTableRecord
  2
DOT2
 70
0
  3
Dot (.5) . . . . . . . . . . . . . . . . . . . 
 72
65
 73
2
 40
0.254
 49
0.0
 74
0
 49
-0.254
 74
0
  0
LTYPE
  5
3E
330
2
100
AcDbSymbolTableRecord
100
AcDbLinetypeTableRecord
  2
DIVIDE
 70
0
  3
Divide __ . . __ . . __ . . __ . . __ . . __
 72
65
 73
6
 40
4.064
 49
2.54
 74
0
 49
-0.508
 74
0
 49
0.0
 74
0
 49
-0.508
 74
0
 49
0.0
 74
0
 49
-0.508
 74
0
  0
LTYPE
  5
3F
330
2
100
AcDbSymbolTableRecord
100
AcDbLinetypeTableRecord
  2
DIVIDEX2
 70
0
  3
Divide (2x) ____  . .  ____  . .  ____  . .  ____
 72
65
 73
6
 40
6.604
 49
5.08
 74
0
 49
-0.508
 74
0
 49
0.0
 74
0
 49
-0.508
 74
0
 49
0.0
 74
0
 49
-0.508
 74
0
  0
LTYPE
  5
40
330
2
100
AcDbSymbolTableRecord
100
AcDbLinetypeTableRecord
  2
DIVIDE2
 70
0
  3
Divide(.5x) _ . _ . _ . _ . _ . _ . _ . _
 72
65
 73
6
 40
2.032
 49
1.27
 74
0
 49
-0.254
 74
0
 49
0.0
 74
0
 49
-0.254
 74
0
 49
0.0
 74
0
 49
-0.254
 74
0
  0
ENDTAB
  0
TABLE
  2
LAYER
  5
1
330
0
100
AcDbSymbolTable
 70
14
  0
LAYER
  5
27
330
1
100
AcDbSymbolTableRecord
100
AcDbLayerTableRecord
  2
0
 70
0
 62
7
  6
Continuous
370
-3
390
13
347
21
  0
LAYER
  5
28
330
1
100
AcDbSymbolTableRecord
100
AcDbLayerTableRecord
  2
Defpoints
 70
0
 62
7
  6
Continuous
290
0
370
-3
390
13
347
21
  0
LAYER
  5
8A
330
1
100
AcDbSymbolTableRecord
100
AcDbLayerTableRecord
  2
ADA_SINIR
 70
0
 62
5
  6
Continuous
370
-3
390
13
347
21
  0
LAYER
  5
8B
330
1
100
AcDbSymbolTableRecord
100
AcDbLayerTableRecord
  2
PARSEL_SINIR
 70
0
 62
3
  6
Continuous
370
-3
390
13
347
21
  0
LAYER
  5
8C
330
1
100
AcDbSymbolTableRecord
100
AcDbLayerTableRecord
  2
PARSEL_BOLME
 70
0
 62
1
  6
Continuous
370
-3
390
13
347
21
  0
LAYER
  5
8D
330
1
100
AcDbSymbolTableRecord
100
AcDbLayerTableRecord
  2
CEKME_MESAFESI
 70
0
 62
2
  6
Continuous
370
-3
390
13
347
21
  0
LAYER
  5
8E
330
1
100
AcDbSymbolTableRecord
100
AcDbLayerTableRecord
  2
NOKTA
 70
0
 62
7
  6
Continuous
370
-3
390
13
347
21
  0
LAYER
  5
8F
330
1
100
AcDbSymbolTableRecord
100
AcDbLayerTableRecord
  2
NOKTA_NO
 70
0
 62
8
  6
Continuous
370
-3
390
13
347
21
  0
LAYER
  5
90
330
1
100
AcDbSymbolTableRecord
100
AcDbLayerTableRecord
  2
IMAR_NOTU
 70
0
 62
4
  6
Continuous
370
-3
390
13
347
21
  0
LAYER
  5
91
330
1
100
AcDbSymbolTableRecord
100
AcDbLayerTableRecord
  2
PARSEL_NO
 70
0
 62
6
  6
Continuous
370
-3
390
13
347
21
  0
LAYER
  5
E8
330
1
100
AcDbSymbolTableRecord
100
AcDbLayerTableRecord
  2
KITLE_115
 70
0
 62
6
  6
Continuous
370
-3
390
13
347
21
  0
LAYER
  5
E9
330
1
100
AcDbSymbolTableRecord
100
AcDbLayerTableRecord
  2
BINA_115
 70
0
 62
1
  6
Continuous
370
-3
390
13
347
21
  0
LAYER
  5
EA
330
1
100
AcDbSymbolTableRecord
100
AcDbLayerTableRecord
  2
BINA_NO_115
 70
0
 62
7
  6
Continuous
370
-3
390
13
347
21
  0
LAYER
  5
EB
330
1
100
AcDbSymbolTableRecord
100
AcDbLayerTableRecord
  2
GUNEY_CEKME_115
 70
0
 62
4
  6
Continuous
370
-3
390
13
347
21
  0
ENDTAB
  0
TABLE
  2
STYLE
  5
5
330
0
100
AcDbSymbolTable
 70
26
  0
STYLE
  5
29
330
5
100
AcDbSymbolTableRecord
100
AcDbTextStyleTableRecord
  2
Standard
 70
0
 40
0.0
 41
1.0
 50
0.0
 71
0
 42
2.5
  3
txt
  4

  0
STYLE
  5
41
330
5
100
AcDbSymbolTableRecord
100
AcDbTextStyleTableRecord
  2
OpenSans-Light
 70
0
 40
0.0
 41
1.0
 50
0.0
 71
0
 42
2.5
  3
OpenSans-Light.ttf
  4

  0
STYLE
  5
42
330
5
100
AcDbSymbolTableRecord
100
AcDbTextStyleTableRecord
  2
OpenSans-Light-Italic
 70
0
 40
0.0
 41
1.0
 50
0.0
 71
0
 42
2.5
  3
OpenSans-LightItalic.ttf
  4

  0
STYLE
  5
43
330
5
100
AcDbSymbolTableRecord
100
AcDbTextStyleTableRecord
  2
OpenSans
 70
0
 40
0.0
 41
1.0
 50
0.0
 71
0
 42
2.5
  3
OpenSans-Regular.ttf
  4

  0
STYLE
  5
44
330
5
100
AcDbSymbolTableRecord
100
AcDbTextStyleTableRecord
  2
OpenSans-Italic
 70
0
 40
0.0
 41
1.0
 50
0.0
 71
0
 42
2.5
  3
OpenSans-Italic.ttf
  4

  0
STYLE
  5
45
330
5
100
AcDbSymbolTableRecord
100
AcDbTextStyleTableRecord
  2
OpenSans-SemiBold
 70
0
 40
0.0
 41
1.0
 50
0.0
 71
0
 42
2.5
  3
OpenSans-SemiBold.ttf
  4

  0
STYLE
  5
46
330
5
100
AcDbSymbolTableRecord
100
AcDbTextStyleTableRecord
  2
OpenSans-SemiBoldItalic
 70
0
 40
0.0
 41
1.0
 50
0.0
 71
0
 42
2.5
  3
OpenSans-SemiBoldItalic.ttf
  4

  0
STYLE
  5
47
330
5
100
AcDbSymbolTableRecord
100
AcDbTextStyleTableRecord
  2
OpenSans-Bold
 70
0
 40
0.0
 41
1.0
 50
0.0
 71
0
 42
2.5
  3
OpenSans-Bold.ttf
  4

  0
STYLE
  5
48
330
5
100
AcDbSymbolTableRecord
100
AcDbTextStyleTableRecord
  2
OpenSans-BoldItalic
 70
0
 40
0.0
 41
1.0
 50
0.0
 71
0
 42
2.5
  3
OpenSans-BoldItalic.ttf
  4

  0
STYLE
  5
49
330
5
100
AcDbSymbolTableRecord
100
AcDbTextStyleTableRecord
  2
OpenSans-ExtraBold
 70
0
 40
0.0
 41
1.0
 50
0.0
 71
0
 42
2.5
  3
OpenSans-ExtraBold.ttf
  4

  0
STYLE
  5
4A
330
5
100
AcDbSymbolTableRecord
100
AcDbTextStyleTableRecord
  2
OpenSans-ExtraBoldItalic
 70
0
 40
0.0
 41
1.0
 50
0.0
 71
0
 42
2.5
  3
OpenSans-ExtraBoldItalic.ttf
  4

  0
STYLE
  5
4B
330
5
100
AcDbSymbolTableRecord
100
AcDbTextStyleTableRecord
  2
OpenSansCondensed-Bold
 70
0
 40
0.0
 41
1.0
 50
0.0
 71
0
 42
2.5
  3
OpenSansCondensed-Bold.ttf
  4

  0
STYLE
  5
4C
330
5
100
AcDbSymbolTableRecord
100
AcDbTextStyleTableRecord
  2
OpenSansCondensed-Light
 70
0
 40
0.0
 41
1.0
 50
0.0
 71
0
 42
2.5
  3
OpenSansCondensed-Light.ttf
  4

  0
STYLE
  5
4D
330
5
100
AcDbSymbolTableRecord
100
AcDbTextStyleTableRecord
  2
OpenSansCondensed-Italic
 70
0
 40
0.0
 41
1.0
 50
0.0
 71
0
 42
2.5
  3
OpenSansCondensed-LightItalic.ttf
  4

  0
STYLE
  5
4E
330
5
100
AcDbSymbolTableRecord
100
AcDbTextStyleTableRecord
  2
LiberationSans
 70
0
 40
0.0
 41
1.0
 50
0.0
 71
0
 42
2.5
  3
LiberationSans-Regular.ttf
  4

  0
STYLE
  5
4F
330
5
100
AcDbSymbolTableRecord
100
AcDbTextStyleTableRecord
  2
LiberationSans-Bold
 70
0
 40
0.0
 41
1.0
 50
0.0
 71
0
 42
2.5
  3
LiberationSans-Bold.ttf
  4

  0
STYLE
  5
50
330
5
100
AcDbSymbolTableRecord
100
AcDbTextStyleTableRecord
  2
LiberationSans-BoldItalic
 70
0
 40
0.0
 41
1.0
 50
0.0
 71
0
 42
2.5
  3
LiberationSans-BoldItalic.ttf
  4

  0
STYLE
  5
51
330
5
100
AcDbSymbolTableRecord
100
AcDbTextStyleTableRecord
  2
LiberationSans-Italic
 70
0
 40
0.0
 41
1.0
 50
0.0
 71
0
 42
2.5
  3
LiberationSans-Italic.ttf
  4

  0
STYLE
  5
52
330
5
100
AcDbSymbolTableRecord
100
AcDbTextStyleTableRecord
  2
LiberationSerif
 70
0
 40
0.0
 41
1.0
 50
0.0
 71
0
 42
2.5
  3
LiberationSerif-Regular.ttf
  4

  0
STYLE
  5
53
330
5
100
AcDbSymbolTableRecord
100
AcDbTextStyleTableRecord
  2
LiberationSerif-Bold
 70
0
 40
0.0
 41
1.0
 50
0.0
 71
0
 42
2.5
  3
LiberationSerif-Bold.ttf
  4

  0
STYLE
  5
54
330
5
100
AcDbSymbolTableRecord
100
AcDbTextStyleTableRecord
  2
LiberationSerif-BoldItalic
 70
0
 40
0.0
 41
1.0
 50
0.0
 71
0
 42
2.5
  3
LiberationSerif-BoldItalic.ttf
  4

  0
STYLE
  5
55
330
5
100
AcDbSymbolTableRecord
100
AcDbTextStyleTableRecord
  2
LiberationSerif-Italic
 70
0
 40
0.0
 41
1.0
 50
0.0
 71
0
 42
2.5
  3
LiberationSerif-Italic.ttf
  4

  0
STYLE
  5
56
330
5
100
AcDbSymbolTableRecord
100
AcDbTextStyleTableRecord
  2
LiberationMono
 70
0
 40
0.0
 41
1.0
 50
0.0
 71
0
 42
2.5
  3
LiberationMono-Regular.ttf
  4

  0
STYLE
  5
57
330
5
100
AcDbSymbolTableRecord
100
AcDbTextStyleTableRecord
  2
LiberationMono-Bold
 70
0
 40
0.0
 41
1.0
 50
0.0
 71
0
 42
2.5
  3
LiberationMono-Bold.ttf
  4

  0
STYLE
  5
58
330
5
100
AcDbSymbolTableRecord
100
AcDbTextStyleTableRecord
  2
LiberationMono-BoldItalic
 70
0
 40
0.0
 41
1.0
 50
0.0
 71
0
 42
2.5
  3
LiberationMono-BoldItalic.ttf
  4

  0
STYLE
  5
59
330
5
100
AcDbSymbolTableRecord
100
AcDbTextStyleTableRecord
  2
LiberationMono-Italic
 70
0
 40
0.0
 41
1.0
 50
0.0
 71
0
 42
2.5
  3
LiberationMono-Italic.ttf
  4

  0
ENDTAB
  0
TABLE
  2
VIEW
  5
7
330
0
100
AcDbSymbolTable
 70
0
  0
ENDTAB
  0
TABLE
  2
UCS
  5
6
330
0
100
AcDbSymbolTable
 70
0
  0
ENDTAB
  0
TABLE
  2
APPID
  5
3
330
0
100
AcDbSymbolTable
 70
3
  0
APPID
  5
2A
330
3
100
AcDbSymbolTableRecord
100
AcDbRegAppTableRecord
  2
ACAD
 70
0
  0
APPID
  5
E5
330
3
100
AcDbSymbolTableRecord
100
AcDbRegAppTableRecord
  2
HATCHBACKGROUNDCOLOR
 70
0
  0
APPID
  5
E6
330
3
100
AcDbSymbolTableRecord
100
AcDbRegAppTableRecord
  2
EZDXF
 70
0
  0
ENDTAB
  0
TABLE
  2
DIMSTYLE
  5
4
330
0
100
AcDbSymbolTable
 70
12
100
AcDbDimStyleTable
  0
DIMSTYLE
105
2B
330
4
100
AcDbSymbolTableRecord
100
AcDbDimStyleTableRecord
  2
Standard
 70
0
 40
1.0
 41
2.5
 42
0.625
 43
3.75
 44
1.25
 45
0.0
 46
0.0
 47
0.0
 48
0.0
 49
2.5
140
2.5
141
2.5
142
0.0
143
0.03937007874
144
1.0
145
0.0
146
1.0
147
0.625
148
0.0
 69
0
 70
0
 71
0
 72
0
 73
0
 74
0
 75
0
 76
0
 77
1
 78
8
 79
3
170
0
171
3
172
1
173
0
174
0
175
0
176
0
177
0
178
0
179
2
271
2
272
2
273
2
274
3
275
0
276
0
277
2
278
44
279
0
280
0
281
0
282
0
283
0
284
8
285
0
286
0
288
0
289
3
290
0
371
-2
372
-2
  0
DIMSTYLE
105
73
330
4
100
AcDbSymbolTableRecord
100
AcDbDimStyleTableRecord
  2
EZDXF
 70
0
 40
1.0
 41
0.175
 42
0.125
 43
3.75
 44
0.375
 45
0.0
 46
0.0
 47
0.0
 48
0.0
 49
2.5
140
0.25
141
2.5
142
0.0
143
0.03937007874
144
100.0
145
0.0
146
0.5
147
0.1
148
0.0
 69
0
 70
0
 71
0
 72
0
 73
0
 74
0
 75
0
 76
0
 77
1
 78
12
 79
3
170
0
171
3
172
1
173
0
174
0
175
0
176
0
177
0
178
0
179
2
271
2
272
2
273
2
274
3
275
0
276
0
277
2
278
46
279
2
280
0
281
0
282
0
283
0
284
8
285
0
286
0
288
1
289
3
290
0
340
4C
342
74
371
-2
372
-2
  0
DIMSTYLE
105
7C
330
4
100
AcDbSymbolTableRecord
100
AcDbDimStyleTableRecord
  2
EZ_M_100_H25_CM
 70
0
 40
1.0
 41
0.25
 42
0.125
 43
3.75
 44
0.375
 45
0.0
 46
0.0
 47
0.0
 48
0.0
 49
2.5
140
0.25
141
2.5
142
0.125
143
0.03937007874
144
100.0
145
0.0
146
0.5
147
0.1
148
0.0
 69
0
 70
0
 71
0
 72
0
 73
0
 74
0
 75
0
 76
0
 77
1
 78
12
 79
3
170
0
171
3
172
1
173
0
174
0
175
0
176
0
177
0
178
0
179
2
271
2
272
2
273
2
274
3
275
0
276
0
277
2
278
46
279
2
280
0
281
0
282
0
283
0
284
8
285
0
286
0
288
1
289
3
290
0
340
4C
371
-2
372
-2
  0
DIMSTYLE
105
7D
330
4
100
AcDbSymbolTableRecord
100
AcDbDimStyleTableRecord
  2
EZ_M_50_H25_CM
 70
0
 40
1.0
 41
0.125
 42
0.0625
 43
3.75
 44
0.1875
 45
0.0
 46
0.0
 47
0.0
 48
0.0
 49
2.5
140
0.125
141
2.5
142
0.0625
143
0.03937007874
144
100.0
145
0.0
146
0.5
147
0.05
148
0.0
 69
0
 70
0
 71
0
 72
0
 73
0
 74
0
 75
0
 76
0
 77
1
 78
12
 79
3
170
0
171
3
172
1
173
0
174
0
175
0
176
0
177
0
178
0
179
2
271
2
272
2
273
2
274
3
275
0
276
0
277
2
278
46
279
2
280
0
281
0
282
0
283
0
284
8
285
0
286
0
288
1
289
3
290
0
340
4C
371
-2
372
-2
  0
DIMSTYLE
105
7E
330
4
100
AcDbSymbolTableRecord
100
AcDbDimStyleTableRecord
  2
EZ_M_25_H25_CM
 70
0
 40
1.0
 41
0.0625
 42
0.03125
 43
3.75
 44
0.09375
 45
0.0
 46
0.0
 47
0.0
 48
0.0
 49
2.5
140
0.0625
141
2.5
142
0.03125
143
0.03937007874
144
100.0
145
0.0
146
0.5
147
0.025
148
0.0
 69
0
 70
0
 71
0
 72
0
 73
0
 74
0
 75
0
 76
0
 77
1
 78
12
 79
3
170
0
171
3
172
1
173
0
174
0
175
0
176
0
177
0
178
0
179
2
271
2
272
2
273
2
274
3
275
0
276
0
277
2
278
46
279
2
280
0
281
0
282
0
283
0
284
8
285
0
286
0
288
1
289
3
290
0
340
4C
371
-2
372
-2
  0
DIMSTYLE
105
7F
330
4
100
AcDbSymbolTableRecord
100
AcDbDimStyleTableRecord
  2
EZ_M_20_H25_CM
 70
0
 40
1.0
 41
0.05
 42
0.025
 43
3.75
 44
0.07500000000000001
 45
0.0
 46
0.0
 47
0.0
 48
0.0
 49
2.5
140
0.05
141
2.5
142
0.025
143
0.03937007874
144
100.0
145
0.0
146
0.5
147
0.020000000000000004
148
0.0
 69
0
 70
0
 71
0
 72
0
 73
0
 74
0
 75
0
 76
0
 77
1
 78
12
 79
3
170
0
171
3
172
1
173
0
174
0
175
0
176
0
177
0
178
0
179
2
271
2
272
2
273
2
274
3
275
0
276
0
277
2
278
46
279
2
280
0
281
0
282
0
283
0
284
8
285
0
286
0
288
1
289
3
290
0
340
4C
371
-2
372
-2
  0
DIMSTYLE
105
80
330
4
100
AcDbSymbolTableRecord
100
AcDbDimStyleTableRecord
  2
EZ_M_10_H25_CM
 70
0
 40
1.0
 41
0.025
 42
0.0125
 43
3.75
 44
0.037500000000000006
 45
0.0
 46
0.0
 47
0.0
 48
0.0
 49
2.5
140
0.025
141
2.5
142
0.0125
143
0.03937007874
144
100.0
145
0.0
146
0.5
147
0.010000000000000002
148
0.0
 69
0
 70
0
 71
0
 72
0
 73
0
 74
0
 75
0
 76
0
 77
1
 78
12
 79
3
170
0
171
3
172
1
173
0
174
0
175
0
176
0
177
0
178
0
179
2
271
2
272
2
273
2
274
3
275
0
276
0
277
2
278
46
279
2
280
0
281
0
282
0
283
0
284
8
285
0
286
0
288
1
289
3
290
0
340
4C
371
-2
372
-2
  0
DIMSTYLE
105
81
330
4
100
AcDbSymbolTableRecord
100
AcDbDimStyleTableRecord
  2
EZ_M_5_H25_CM
 70
0
 40
1.0
 41
0.0125
 42
0.00625
 43
3.75
 44
0.018750000000000003
 45
0.0
 46
0.0
 47
0.0
 48
0.0
 49
2.5
140
0.0125
141
2.5
142
0.00625
143
0.03937007874
144
100.0
145
0.0
146
0.5
147
0.005000000000000001
148
0.0
 69
0
 70
0
 71
0
 72
0
 73
0
 74
0
 75
0
 76
0
 77
1
 78
12
 79
3
170
0
171
3
172
1
173
0
174
0
175
0
176
0
177
0
178
0
179
2
271
2
272
2
273
2
274
3
275
0
276
0
277
2
278
46
279
2
280
0
281
0
282
0
283
0
284
8
285
0
286
0
288
1
289
3
290
0
340
4C
371
-2
372
-2
  0
DIMSTYLE
105
82
330
4
100
AcDbSymbolTableRecord
100
AcDbDimStyleTableRecord
  2
EZ_M_1_H25_CM
 70
0
 40
1.0
 41
0.0025
 42
0.00125
 43
3.75
 44
0.00375
 45
0.0
 46
0.0
 47
0.0
 48
0.0
 49
2.5
140
0.0025
141
2.5
142
0.00125
143
0.03937007874
144
100.0
145
0.0
146
0.5
147
0.001
148
0.0
 69
0
 70
0
 71
0
 72
0
 73
0
 74
0
 75
0
 76
0
 77
1
 78
12
 79
3
170
0
171
3
172
1
173
0
174
0
175
0
176
0
177
0
178
0
179
2
271
2
272
2
273
2
274
3
275
0
276
0
277
2
278
46
279
2
280
0
281
0
282
0
283
0
284
8
285
0
286
0
288
1
289
3
290
0
340
4C
371
-2
372
-2
  0
DIMSTYLE
105
83
330
4
100
AcDbSymbolTableRecord
100
AcDbDimStyleTableRecord
  2
EZ_RADIUS
 70
0
 40
1.0
 41
0.25
 42
0.125
 43
3.75
 44
0.375
 45
0.0
 46
0.0
 47
0.0
 48
0.0
 49
2.5
140
0.25
141
0.0
142
0.0
143
0.03937007874
144
100.0
145
0.0
146
0.5
147
0.1
148
0.0
 69
0
 70
0
 71
0
 72
0
 73
0
 74
0
 75
0
 76
0
 77
1
 78
12
 79
3
170
0
171
3
172
0
173
0
174
0
175
0
176
0
177
0
178
0
179
2
271
2
272
2
273
2
274
3
275
0
276
0
277
2
278
46
279
1
280
0
281
0
282
0
283
0
284
8
285
0
286
0
288
1
289
3
290
0
340
4C
342
84
371
-2
372
-2
  0
DIMSTYLE
105
88
330
4
100
AcDbSymbolTableRecord
100
AcDbDimStyleTableRecord
  2
EZ_RADIUS_INSIDE
 70
0
 40
1.0
 41
0.25
 42
0.125
 43
3.75
 44
0.375
 45
0.0
 46
0.0
 47
0.0
 48
0.0
 49
2.5
140
0.25
141
0.0
142
0.0
143
0.03937007874
144
100.0
145
0.0
146
0.5
147
0.1
148
0.0
 69
0
 70
0
 71
0
 72
0
 73
0
 74
0
 75
0
 76
0
 77
0
 78
12
 79
3
170
0
171
3
172
0
173
0
174
1
175
0
176
0
177
0
178
0
179
2
271
2
272
2
273
2
274
3
275
0
276
0
277
2
278
46
279
0
280
0
281
0
282
0
283
0
284
8
285
0
286
0
288
1
289
0
290
0
340
4C
342
84
371
-2
372
-2
  0
DIMSTYLE
105
89
330
4
100
AcDbSymbolTableRecord
100
AcDbDimStyleTableRecord
  2
EZ_CURVED
 70
0
 40
1.0
 41
0.25
 42
0.125
 43
3.75
 44
0.375
 45
0.0
 46
0.0
 47
0.0
 48
0.0
 49
2.5
140
0.25
141
2.5
142
0.0
143
0.03937007874
144
100.0
145
0.0
146
0.5
147
0.1
148
0.0
 69
0
 70
0
 71
0
 72
0
 73
0
 74
0
 75
0
 76
0
 77
1
 78
12
 79
2
 90
2
170
0
171
3
172
1
173
0
174
0
175
0
176
0
177
0
178
0
179
2
271
2
272
2
273
2
274
3
275
0
276
0
277
2
278
46
279
2
280
0
281
0
282
0
283
0
284
8
285
0
286
0
288
1
289
3
290
0
340
4C
371
-2
372
-2
  0
ENDTAB
  0
TABLE
  2
BLOCK_RECORD
  5
9
330
0
100
AcDbSymbolTable
 70
5
  0
BLOCK_RECORD
  5
17
330
9
100
AcDbSymbolTableRecord
100
AcDbBlockTableRecord
  2
*Model_Space
340
1A
 70
0
280
1
281
0
  0
BLOCK_RECORD
  5
1B
330
9
100
AcDbSymbolTableRecord
100
AcDbBlockTableRecord
  2
*Paper_Space
340
1E
 70
0
280
1
281
0
  0
BLOCK_RECORD
  5
74
330
9
100
AcDbSymbolTableRecord
100
AcDbBlockTableRecord
  2
_ARCHTICK
340
0
 70
0
280
1
281
0
  0
BLOCK_RECORD
  5
78
330
9
100
AcDbSymbolTableRecord
100
AcDbBlockTableRecord
  2
_CLOSEDFILLED
340
0
 70
0
280
1
281
0
  0
BLOCK_RECORD
  5
84
330
9
100
AcDbSymbolTableRecord
100
AcDbBlockTableRecord
  2
_CLOSEDBLANK
340
0
 70
0
280
1
281
0
  0
ENDTAB
  0
ENDSEC
  0
SECTION
  2
BLOCKS
  0
BLOCK
  5
18
330
17
100
AcDbEntity
  8
0
100
AcDbBlockBegin
  2
*Model_Space
 70
0
 10
0.0
 20
0.0
 30
0.0
  3
*Model_Space
  1

  0
ENDBLK
  5
19
330
17
100
AcDbEntity
  8
0
100
AcDbBlockEnd
  0
BLOCK
  5
1C
330
1B
100
AcDbEntity
  8
0
100
AcDbBlockBegin
  2
*Paper_Space
 70
0
 10
0.0
 20
0.0
 30
0.0
  3
*Paper_Space
  1

  0
ENDBLK
  5
1D
330
1B
100
AcDbEntity
  8
0
100
AcDbBlockEnd
  0
BLOCK
  5
75
330
74
100
AcDbEntity
  8
0
100
AcDbBlockBegin
  2
_ARCHTICK
 70
0
 10
0.0
 20
0.0
 30
0.0
  3
_ARCHTICK
  1

  0
LWPOLYLINE
  5
77
330
74
100
AcDbEntity
  8
0
  6
BYBLOCK
 62
0
100
AcDbPolyline
 90
2
 70
0
 43
0.15
 10
-0.5
 20
-0.5
 10
0.5
 20
0.5
  0
ENDBLK
  5
76
330
74
100
AcDbEntity
  8
0
100
AcDbBlockEnd
  0
BLOCK
  5
79
330
78
100
AcDbEntity
  8
0
100
AcDbBlockBegin
  2
_CLOSEDFILLED
 70
0
 10
0.0
 20
0.0
 30
0.0
  3
_CLOSEDFILLED
  1

  0
SOLID
  5
7B
330
78
100
AcDbEntity
  8
0
  6
BYBLOCK
 62
0
100
AcDbTrace
 10
-1.0
 20
0.16439898372402537
 30
0.0
 11
0.0
 21
0.0
 31
0.0
 12
-1.0
 22
-0.16439898372402537
 32
0.0
 13
-1.0
 23
-0.16439898372402537
 33
0.0
  0
ENDBLK
  5
7A
330
78
100
AcDbEntity
  8
0
100
AcDbBlockEnd
  0
BLOCK
  5
85
330
84
100
AcDbEntity
  8
0
100
AcDbBlockBegin
  2
_CLOSEDBLANK
 70
0
 10
0.0
 20
0.0
 30
0.0
  3
_CLOSEDBLANK
  1

  0
LWPOLYLINE
  5
87
330
84
100
AcDbEntity
  8
0
  6
BYBLOCK
 62
0
100
AcDbPolyline
 90
3
 70
1
 10
-1.0
 20
0.16439898372402537
 10
0.0
 20
0.0
 10
-1.0
 20
-0.16439898372402537
  0
ENDBLK
  5
86
330
84
100
AcDbEntity
  8
0
100
AcDbBlockEnd
  0
ENDSEC
  0
SECTION
  2
ENTITIES
  0
POINT
  5
92
330
17
100
AcDbEntity
  8
NOKTA
100
AcDbPoint
 10
566407.16
 20
4178568.98
 30
0.0
  0
TEXT
  5
93
330
17
100
AcDbEntity
  8
NOKTA_NO
100
AcDbText
 10
566407.86
 20
4178569.68
 30
0.0
 40
0.6
  1
1
 11
566407.86
 21
4178569.68
 31
0.0
100
AcDbText
  0
POINT
  5
94
330
17
100
AcDbEntity
  8
NOKTA
100
AcDbPoint
 10
566419.7
 20
4178555.67
 30
0.0
  0
TEXT
  5
95
330
17
100
AcDbEntity
  8
NOKTA_NO
100
AcDbText
 10
566420.3999999999
 20
4178556.37
 30
0.0
 40
0.6
  1
2
 11
566420.3999999999
 21
4178556.37
 31
0.0
100
AcDbText
  0
POINT
  5
96
330
17
100
AcDbEntity
  8
NOKTA
100
AcDbPoint
 10
566521.31
 20
4178561.81
 30
0.0
  0
TEXT
  5
97
330
17
100
AcDbEntity
  8
NOKTA_NO
100
AcDbText
 10
566522.01
 20
4178562.5100000002
 30
0.0
 40
0.6
  1
3
 11
566522.01
 21
4178562.5100000002
 31
0.0
100
AcDbText
  0
POINT
  5
98
330
17
100
AcDbEntity
  8
NOKTA
100
AcDbPoint
 10
566489.1
 20
4178587.0
 30
0.0
  0
TEXT
  5
99
330
17
100
AcDbEntity
  8
NOKTA_NO
100
AcDbText
 10
566489.7999999999
 20
4178587.7
 30
0.0
 40
0.6
  1
864
 11
566489.7999999999
 21
4178587.7
 31
0.0
100
AcDbText
  0
POINT
  5
9A
330
17
100
AcDbEntity
  8
NOKTA
100
AcDbPoint
 10
566473.15
 20
4178586.97
 30
0.0
  0
TEXT
  5
9B
330
17
100
AcDbEntity
  8
NOKTA_NO
100
AcDbText
 10
566473.85
 20
4178587.6700000004
 30
0.0
 40
0.6
  1
865
 11
566473.85
 21
4178587.6700000004
 31
0.0
100
AcDbText
  0
POINT
  5
9C
330
17
100
AcDbEntity
  8
NOKTA
100
AcDbPoint
 10
566462.47
 20
4178588.47
 30
0.0
  0
TEXT
  5
9D
330
17
100
AcDbEntity
  8
NOKTA_NO
100
AcDbText
 10
566463.1699999999
 20
4178589.1700000004
 30
0.0
 40
0.6
  1
866
 11
566463.1699999999
 21
4178589.1700000004
 31
0.0
100
AcDbText
  0
POINT
  5
9E
330
17
100
AcDbEntity
  8
NOKTA
100
AcDbPoint
 10
566448.56
 20
4178587.19
 30
0.0
  0
TEXT
  5
9F
330
17
100
AcDbEntity
  8
NOKTA_NO
100
AcDbText
 10
566449.26
 20
4178587.89
 30
0.0
 40
0.6
  1
867
 11
566449.26
 21
4178587.89
 31
0.0
100
AcDbText
  0
POINT
  5
A0
330
17
100
AcDbEntity
  8
NOKTA
100
AcDbPoint
 10
566433.94
 20
4178586.78
 30
0.0
  0
TEXT
  5
A1
330
17
100
AcDbEntity
  8
NOKTA_NO
100
AcDbText
 10
566434.6399999999
 20
4178587.48
 30
0.0
 40
0.6
  1
868
 11
566434.6399999999
 21
4178587.48
 31
0.0
100
AcDbText
  0
POINT
  5
A2
330
17
100
AcDbEntity
  8
NOKTA
100
AcDbPoint
 10
566423.73
 20
4178585.09
 30
0.0
  0
TEXT
  5
A3
330
17
100
AcDbEntity
  8
NOKTA_NO
100
AcDbText
 10
566424.4299999999
 20
4178585.79
 30
0.0
 40
0.6
  1
869
 11
566424.4299999999
 21
4178585.79
 31
0.0
100
AcDbText
  0
POINT
  5
A4
330
17
100
AcDbEntity
  8
NOKTA
100
AcDbPoint
 10
566405.21
 20
4178583.03
 30
0.0
  0
TEXT
  5
A5
330
17
100
AcDbEntity
  8
NOKTA_NO
100
AcDbText
 10
566405.9099999999
 20
4178583.73
 30
0.0
 40
0.6
  1
870
 11
566405.9099999999
 21
4178583.73
 31
0.0
100
AcDbText
  0
POINT
  5
A6
330
17
100
AcDbEntity
  8
NOKTA
100
AcDbPoint
 10
566400.39
 20
4178582.76
 30
0.0
  0
TEXT
  5
A7
330
17
100
AcDbEntity
  8
NOKTA_NO
100
AcDbText
 10
566401.09
 20
4178583.46
 30
0.0
 40
0.6
  1
871
 11
566401.09
 21
4178583.46
 31
0.0
100
AcDbText
  0
POINT
  5
A8
330
17
100
AcDbEntity
  8
NOKTA
100
AcDbPoint
 10
566396.58
 20
4178580.33
 30
0.0
  0
TEXT
  5
A9
330
17
100
AcDbEntity
  8
NOKTA_NO
100
AcDbText
 10
566397.2799999999
 20
4178581.0300000003
 30
0.0
 40
0.6
  1
872
 11
566397.2799999999
 21
4178581.0300000003
 31
0.0
100
AcDbText
  0
POINT
  5
AA
330
17
100
AcDbEntity
  8
NOKTA
100
AcDbPoint
 10
566549.08
 20
4178577.42
 30
0.0
  0
TEXT
  5
AB
330
17
100
AcDbEntity
  8
NOKTA_NO
100
AcDbText
 10
566549.7799999999
 20
4178578.12
 30
0.0
 40
0.6
  1
929
 11
566549.7799999999
 21
4178578.12
 31
0.0
100
AcDbText
  0
POINT
  5
AC
330
17
100
AcDbEntity
  8
NOKTA
100
AcDbPoint
 10
566544.13
 20
4178583.49
 30
0.0
  0
TEXT
  5
AD
330
17
100
AcDbEntity
  8
NOKTA_NO
100
AcDbText
 10
566544.83
 20
4178584.1900000004
 30
0.0
 40
0.6
  1
930
 11
566544.83
 21
4178584.1900000004
 31
0.0
100
AcDbText
  0
POINT
  5
AE
330
17
100
AcDbEntity
  8
NOKTA
100
AcDbPoint
 10
566541.99
 20
4178590.72
 30
0.0
  0
TEXT
  5
AF
330
17
100
AcDbEntity
  8
NOKTA_NO
100
AcDbText
 10
566542.69
 20
4178591.4200000004
 30
0.0
 40
0.6
  1
931
 11
566542.69
 21
4178591.4200000004
 31
0.0
100
AcDbText
  0
POINT
  5
B0
330
17
100
AcDbEntity
  8
NOKTA
100
AcDbPoint
 10
566526.71
 20
4178590.24
 30
0.0
  0
TEXT
  5
B1
330
17
100
AcDbEntity
  8
NOKTA_NO
100
AcDbText
 10
566527.4099999999
 20
4178590.9400000004
 30
0.0
 40
0.6
  1
932
 11
566527.4099999999
 21
4178590.9400000004
 31
0.0
100
AcDbText
  0
POINT
  5
B2
330
17
100
AcDbEntity
  8
NOKTA
100
AcDbPoint
 10
566517.43
 20
4178589.36
 30
0.0
  0
TEXT
  5
B3
330
17
100
AcDbEntity
  8
NOKTA_NO
100
AcDbText
 10
566518.13
 20
4178590.06
 30
0.0
 40
0.6
  1
933
 11
566518.13
 21
4178590.06
 31
0.0
100
AcDbText
  0
POINT
  5
B4
330
17
100
AcDbEntity
  8
NOKTA
100
AcDbPoint
 10
566502.79
 20
4178588.14
 30
0.0
  0
TEXT
  5
B5
330
17
100
AcDbEntity
  8
NOKTA_NO
100
AcDbText
 10
566503.49
 20
4178588.8400000003
 30
0.0
 40
0.6
  1
934
 11
566503.49
 21
4178588.8400000003
 31
0.0
100
AcDbText
  0
POINT
  5
B6
330
17
100
AcDbEntity
  8
NOKTA
100
AcDbPoint
 10
566416.46
 20
4178559.62
 30
0.0
  0
TEXT
  5
B7
330
17
100
AcDbEntity
  8
NOKTA_NO
100
AcDbText
 10
566417.1599999999
 20
4178560.3200000003
 30
0.0
 40
0.6
  1
935
 11
566417.1599999999
 21
4178560.3200000003
 31
0.0
100
AcDbText
  0
POINT
  5
B8
330
17
100
AcDbEntity
  8
NOKTA
100
AcDbPoint
 10
566404.45
 20
4178571.7
 30
0.0
  0
TEXT
  5
B9
330
17
100
AcDbEntity
  8
NOKTA_NO
100
AcDbText
 10
566405.1499999999
 20
4178572.4000000004
 30
0.0
 40
0.6
  1
936
 11
566405.1499999999
 21
4178572.4000000004
 31
0.0
100
AcDbText
  0
POINT
  5
BA
330
17
100
AcDbEntity
  8
NOKTA
100
AcDbPoint
 10
566542.44
 20
4178573.64
 30
0.0
  0
TEXT
  5
BB
330
17
100
AcDbEntity
  8
NOKTA_NO
100
AcDbText
 10
566543.1399999999
 20
4178574.3400000003
 30
0.0
 40
0.6
  1
937
 11
566543.1399999999
 21
4178574.3400000003
 31
0.0
100
AcDbText
  0
POINT
  5
BC
330
17
100
AcDbEntity
  8
NOKTA
100
AcDbPoint
 10
566526.94
 20
4178566.45
 30
0.0
  0
TEXT
  5
BD
330
17
100
AcDbEntity
  8
NOKTA_NO
100
AcDbText
 10
566527.6399999999
 20
4178567.1500000004
 30
0.0
 40
0.6
  1
938
 11
566527.6399999999
 21
4178567.1500000004
 31
0.0
100
AcDbText
  0
POINT
  5
BE
330
17
100
AcDbEntity
  8
NOKTA
100
AcDbPoint
 10
566516.94
 20
4178558.2
 30
0.0
  0
TEXT
  5
BF
330
17
100
AcDbEntity
  8
NOKTA_NO
100
AcDbText
 10
566517.6399999999
 20
4178558.9000000004
 30
0.0
 40
0.6
  1
939
 11
566517.6399999999
 21
4178558.9000000004
 31
0.0
100
AcDbText
  0
POINT
  5
C0
330
17
100
AcDbEntity
  8
NOKTA
100
AcDbPoint
 10
566508.47
 20
4178552.98
 30
0.0
  0
TEXT
  5
C1
330
17
100
AcDbEntity
  8
NOKTA_NO
100
AcDbText
 10
566509.1699999999
 20
4178553.68
 30
0.0
 40
0.6
  1
940
 11
566509.1699999999
 21
4178553.68
 31
0.0
100
AcDbText
  0
POINT
  5
C2
330
17
100
AcDbEntity
  8
NOKTA
100
AcDbPoint
 10
566493.09
 20
4178541.93
 30
0.0
  0
TEXT
  5
C3
330
17
100
AcDbEntity
  8
NOKTA_NO
100
AcDbText
 10
566493.7899999999
 20
4178542.6300000004
 30
0.0
 40
0.6
  1
941
 11
566493.7899999999
 21
4178542.6300000004
 31
0.0
100
AcDbText
  0
POINT
  5
C4
330
17
100
AcDbEntity
  8
NOKTA
100
AcDbPoint
 10
566486.28
 20
4178536.71
 30
0.0
  0
TEXT
  5
C5
330
17
100
AcDbEntity
  8
NOKTA_NO
100
AcDbText
 10
566486.98
 20
4178537.41
 30
0.0
 40
0.6
  1
942
 11
566486.98
 21
4178537.41
 31
0.0
100
AcDbText
  0
POINT
  5
C6
330
17
100
AcDbEntity
  8
NOKTA
100
AcDbPoint
 10
566476.3
 20
4178543.48
 30
0.0
  0
TEXT
  5
C7
330
17
100
AcDbEntity
  8
NOKTA_NO
100
AcDbText
 10
566477.0
 20
4178544.18
 30
0.0
 40
0.6
  1
943
 11
566477.0
 21
4178544.18
 31
0.0
100
AcDbText
  0
POINT
  5
C8
330
17
100
AcDbEntity
  8
NOKTA
100
AcDbPoint
 10
566463.8
 20
4178550.41
 30
0.0
  0
TEXT
  5
C9
330
17
100
AcDbEntity
  8
NOKTA_NO
100
AcDbText
 10
566464.5
 20
4178551.1100000003
 30
0.0
 40
0.6
  1
944
 11
566464.5
 21
4178551.1100000003
 31
0.0
100
AcDbText
  0
POINT
  5
CA
330
17
100
AcDbEntity
  8
NOKTA
100
AcDbPoint
 10
566455.39
 20
4178543.76
 30
0.0
  0
TEXT
  5
CB
330
17
100
AcDbEntity
  8
NOKTA_NO
100
AcDbText
 10
566456.09
 20
4178544.46
 30
0.0
 40
0.6
  1
945
 11
566456.09
 21
4178544.46
 31
0.0
100
AcDbText
  0
POINT
  5
CC
330
17
100
AcDbEntity
  8
NOKTA
100
AcDbPoint
 10
566446.28
 20
4178534.52
 30
0.0
  0
TEXT
  5
CD
330
17
100
AcDbEntity
  8
NOKTA_NO
100
AcDbText
 10
566446.98
 20
4178535.22
 30
0.0
 40
0.6
  1
946
 11
566446.98
 21
4178535.22
 31
0.0
100
AcDbText
  0
POINT
  5
CE
330
17
100
AcDbEntity
  8
NOKTA
100
AcDbPoint
 10
566439.05
 20
4178526.23
 30
0.0
  0
TEXT
  5
CF
330
17
100
AcDbEntity
  8
NOKTA_NO
100
AcDbText
 10
566439.75
 20
4178526.93
 30
0.0
 40
0.6
  1
947
 11
566439.75
 21
4178526.93
 31
0.0
100
AcDbText
  0
POINT
  5
D0
330
17
100
AcDbEntity
  8
NOKTA
100
AcDbPoint
 10
566435.89
 20
4178520.41
 30
0.0
  0
TEXT
  5
D1
330
17
100
AcDbEntity
  8
NOKTA_NO
100
AcDbText
 10
566436.59
 20
4178521.1100000003
 30
0.0
 40
0.6
  1
948
 11
566436.59
 21
4178521.1100000003
 31
0.0
100
AcDbText
  0
POINT
  5
D2
330
17
100
AcDbEntity
  8
NOKTA
100
AcDbPoint
 10
566432.46
 20
4178537.17
 30
0.0
  0
TEXT
  5
D3
330
17
100
AcDbEntity
  8
NOKTA_NO
100
AcDbText
 10
566433.1599999999
 20
4178537.87
 30
0.0
 40
0.6
  1
949
 11
566433.1599999999
 21
4178537.87
 31
0.0
100
AcDbText
  0
POINT
  5
D4
330
17
100
AcDbEntity
  8
NOKTA
100
AcDbPoint
 10
566428.54
 20
4178544.88
 30
0.0
  0
TEXT
  5
D5
330
17
100
AcDbEntity
  8
NOKTA_NO
100
AcDbText
 10
566429.24
 20
4178545.58
 30
0.0
 40
0.6
  1
950
 11
566429.24
 21
4178545.58
 31
0.0
100
AcDbText
  0
LWPOLYLINE
  5
D6
330
17
100
AcDbEntity
  8
PARSEL_SINIR
100
AcDbPolyline
 90
17
 70
1
 10
566396.58
 20
4178580.33
 10
566400.39
 20
4178582.76
 10
566405.21
 20
4178583.03
 10
566423.73
 20
4178585.09
 10
566433.94
 20
4178586.78
 10
566448.56
 20
4178587.19
 10
566462.47
 20
4178588.47
 10
566473.15
 20
4178586.97
 10
566489.1
 20
4178587.0
 10
566502.79
 20
4178588.14
 10
566517.43
 20
4178589.36
 10
566526.71
 20
4178590.24
 10
566541.99
 20
4178590.72
 10
566544.13
 20
4178583.49
 10
566549.08
 20
4178577.42
 10
566407.16
 20
4178568.98
 10
566404.45
 20
4178571.7
  0
TEXT
  5
D7
330
17
100
AcDbEntity
  8
PARSEL_NO
100
AcDbText
 10
566466.2864705882
 20
4178583.9805882354
 30
0.0
 40
1.4
  1
189/115
 72
1
 11
566466.2864705882
 21
4178583.9805882354
 31
0.0
100
AcDbText
 73
2
  0
LWPOLYLINE
  5
D8
330
17
100
AcDbEntity
  8
PARSEL_SINIR
100
AcDbPolyline
 90
7
 70
1
 10
566407.16
 20
4178568.98
 10
566549.08
 20
4178577.42
 10
566542.44
 20
4178573.64
 10
566526.94
 20
4178566.45
 10
566521.31
 20
4178561.81
 10
566419.7
 20
4178555.67
 10
566416.46
 20
4178559.62
  0
TEXT
  5
D9
330
17
100
AcDbEntity
  8
PARSEL_NO
100
AcDbText
 10
566483.2985714285
 20
4178566.227142857
 30
0.0
 40
1.4
  1
189/116
 72
1
 11
566483.2985714285
 21
4178566.227142857
 31
0.0
100
AcDbText
 73
2
  0
LWPOLYLINE
  5
DA
330
17
100
AcDbEntity
  8
PARSEL_SINIR
100
AcDbPolyline
 90
14
 70
1
 10
566419.7
 20
4178555.67
 10
566521.31
 20
4178561.81
 10
566516.94
 20
4178558.2
 10
566508.47
 20
4178552.98
 10
566493.09
 20
4178541.93
 10
566486.28
 20
4178536.71
 10
566476.3
 20
4178543.48
 10
566463.8
 20
4178550.41
 10
566455.39
 20
4178543.76
 10
566446.28
 20
4178534.52
 10
566439.05
 20
4178526.23
 10
566435.89
 20
4178520.41
 10
566432.46
 20
4178537.17
 10
566428.54
 20
4178544.88
  0
TEXT
  5
DB
330
17
100
AcDbEntity
  8
PARSEL_NO
100
AcDbText
 10
566465.9642857143
 20
4178543.44
 30
0.0
 40
1.4
  1
189/117
 72
1
 11
566465.9642857143
 21
4178543.44
 31
0.0
100
AcDbText
 73
2
  0
LINE
  5
DC
330
17
100
AcDbEntity
  8
PARSEL_BOLME
100
AcDbLine
 10
566407.16
 20
4178568.98
 30
0.0
 11
566549.08
 21
4178577.42
 31
0.0
  0
LINE
  5
DD
330
17
100
AcDbEntity
  8
PARSEL_BOLME
100
AcDbLine
 10
566419.7
 20
4178555.67
 30
0.0
 11
566521.31
 21
4178561.81
 31
0.0
  0
LWPOLYLINE
  5
DE
330
17
100
AcDbEntity
  8
ADA_SINIR
100
AcDbPolyline
 90
34
 70
1
 10
566396.58
 20
4178580.33
 10
566400.39
 20
4178582.76
 10
566405.21
 20
4178583.03
 10
566423.73
 20
4178585.09
 10
566433.94
 20
4178586.78
 10
566448.56
 20
4178587.19
 10
566462.47
 20
4178588.47
 10
566473.15
 20
4178586.97
 10
566489.1
 20
4178587.0
 10
566502.79
 20
4178588.14
 10
566517.43
 20
4178589.36
 10
566526.71
 20
4178590.24
 10
566541.99
 20
4178590.72
 10
566544.13
 20
4178583.49
 10
566549.08
 20
4178577.42
 10
566542.44
 20
4178573.64
 10
566526.94
 20
4178566.45
 10
566521.31
 20
4178561.81
 10
566516.94
 20
4178558.2
 10
566508.47
 20
4178552.98
 10
566493.09
 20
4178541.93
 10
566486.28
 20
4178536.71
 10
566476.3
 20
4178543.48
 10
566463.8
 20
4178550.41
 10
566455.39
 20
4178543.76
 10
566446.28
 20
4178534.52
 10
566439.05
 20
4178526.23
 10
566435.89
 20
4178520.41
 10
566432.46
 20
4178537.17
 10
566428.54
 20
4178544.88
 10
566419.7
 20
4178555.67
 10
566416.46
 20
4178559.62
 10
566407.16
 20
4178568.98
 10
566404.45
 20
4178571.7
  0
LWPOLYLINE
  5
DF
330
17
100
AcDbEntity
  8
CEKME_MESAFESI
  6
DASHED
100
AcDbPolyline
 90
17
 70
1
 10
566405.4599740782
 20
4178580.0392861
 10
566424.1410094256
 20
4178582.1171982386
 10
566434.2283430507
 20
4178583.786894009
 10
566448.7397874462
 20
4178584.1938496996
 10
566462.3979882307
 20
4178585.450679104
 10
566472.9433941287
 20
4178583.9695827705
 10
566489.2275608764
 20
4178584.000211297
 10
566502.8283911145
 20
4178585.1327851135
 10
566517.6986028145
 20
4178586.371970222
 10
566526.8997342904
 20
4178587.2444913075
 10
566539.7703883556
 20
4178587.648805049
 10
566541.424368889
 20
4178582.0608240897
 10
566543.0505272642
 20
4178580.066726848
 10
566410.9964925089
 20
4178572.2134570247
 10
566408.0702178836
 20
4178575.150529714
 10
566403.7018028335
 20
4178579.9407993285
 10
566405.4599740782
 20
4178580.0392861
  0
MTEXT
  5
E0
330
17
100
AcDbEntity
  8
IMAR_NOTU
100
AcDbMText
 10
566326.58
 20
4178583.9805882354
 30
0.0
 40
0.9
 41
60.0
 71
1
  1
189/115  (Sayi 2025/32)\PYuzolcumu: 2.082,94 m2\PNizam: AYRIK - 2 katli\PTAKS: 0.40   (KAKS belirtilmemis ~0.80)\PCekme: On 5 / Yan 3 / Arka 3\PSubasman: max 1.20 m   Cati: %33\PParsel cekme sinirlari disinda yapilamaz
  0
LWPOLYLINE
  5
E1
330
17
100
AcDbEntity
  8
CEKME_MESAFESI
  6
DASHED
100
AcDbPolyline
 90
7
 70
1
 10
566423.5126402619
 20
4178558.905859521
 10
566420.1746393642
 20
4178562.9753359207
 10
566416.6346550809
 20
4178566.5381588144
 10
566529.7497994417
 20
4178573.265130478
 10
566524.2547069124
 20
4178570.7161165895
 10
566516.7616008248
 20
4178564.540625959
 10
566423.5126402619
 20
4178558.905859521
  0
MTEXT
  5
E2
330
17
100
AcDbEntity
  8
IMAR_NOTU
100
AcDbMText
 10
566337.16
 20
4178566.227142857
 30
0.0
 40
0.9
 41
60.0
 71
1
  1
189/116  (Sayi 2025/33)\PYuzolcumu: 1.687,33 m2\PNizam: AYRIK - 2 katli\PTAKS: 0.40\PCekme: On 5 / Yan 3 / Arka 5\PSubasman: max 1.20 m   Cati: %33\PParsel cekme sinirlari disinda yapilamaz
  0
LWPOLYLINE
  5
E3
330
17
100
AcDbEntity
  8
CEKME_MESAFESI
  6
DASHED
100
AcDbPolyline
 90
14
 70
1
 10
566486.1728607782
 20
4178540.407811229
 10
566477.8728214506
 20
4178546.0381986317
 10
566463.5068267819
 20
4178554.0027060728
 10
566453.3836888759
 20
4178545.9980845386
 10
566444.0792994027
 20
4178536.5609211177
 10
566436.5716207118
 20
4178527.9525315887
 10
566438.6620724282
 20
4178531.802667344
 10
566437.2230541523
 20
4178538.834138571
 10
566432.7513252972
 20
4178547.629299149
 10
566428.2050222758
 20
4178553.1784631317
 10
566511.2128821197
 20
4178558.1943893153
 10
566506.8058722564
 20
4178555.478380877
 10
566491.3016837783
 20
4178544.339155741
 10
566486.1728607782
 20
4178540.407811229
  0
MTEXT
  5
E4
330
17
100
AcDbEntity
  8
IMAR_NOTU
100
AcDbMText
 10
566349.7
 20
4178543.44
 30
0.0
 40
0.9
 41
60.0
 71
1
  1
189/117  (Sayi 2025/34)\PYuzolcumu: 1.501,00 m2\PNizam: AYRIK - 2 katli\PTAKS: 0.40\PCekme: On 5 / Yan 3 / Arka 3\PSubasman: max 1.20 m   Cati: %33\PParsel cekme sinirlari disinda yapilamaz
  0
LINE
  5
EC
330
17
100
AcDbEntity
  8
GUNEY_CEKME_115
100
AcDbLine
 10
566407.9801406142
 20
4178572.034074225
 30
0.0
 11
566547.9036679561
 21
4178580.355343749
 31
0.0
  0
LWPOLYLINE
  5
ED
330
17
100
AcDbEntity
  8
KITLE_115
100
AcDbPolyline
 90
8
 70
1
 10
566411.0247614175
 20
4178572.215138202
 10
566437.8175326971
 20
4178573.8085076325
 10
566437.3794172386
 20
4178581.1754917405
 10
566431.9689222306
 20
4178580.8537289314
 10
566432.1102114978
 20
4178578.4779264685
 10
566416.1384302342
 20
4178577.528082656
 10
566415.997140967
 20
4178579.903885119
 10
566410.5866459591
 20
4178579.58212231
  0
LWPOLYLINE
  5
EE
330
17
100
AcDbEntity
  8
BINA_115
100
AcDbPolyline
 90
4
 70
1
 10
566411.0247614175
 20
4178572.215138202
 10
566416.4352564255
 20
4178572.536901011
 10
566415.997140967
 20
4178579.903885119
 10
566410.5866459591
 20
4178579.58212231
  0
TEXT
  5
EF
330
17
100
AcDbEntity
  8
BINA_NO_115
100
AcDbText
 10
566413.5109511924
 20
4178576.05951166
 30
0.0
 40
0.55
  1
1.1\P40 m2\P5.42x7.38
 72
1
 11
566413.5109511924
 21
4178576.05951166
 31
0.0
100
AcDbText
 73
2
  0
LWPOLYLINE
  5
F0
330
17
100
AcDbEntity
  8
BINA_115
100
AcDbPolyline
 90
4
 70
1
 10
566416.4352564255
 20
4178572.536901011
 10
566424.4211470573
 20
4178573.0118229175
 10
566424.124320866
 20
4178578.0030045626
 10
566416.1384302342
 20
4178577.528082656
  0
TEXT
  5
F1
330
17
100
AcDbEntity
  8
BINA_NO_115
100
AcDbText
 10
566420.2797886457
 20
4178575.269952787
 30
0.0
 40
0.55
  1
1.2\P40 m2\P8.00x5.00
 72
1
 11
566420.2797886457
 21
4178575.269952787
 31
0.0
100
AcDbText
 73
2
  0
LWPOLYLINE
  5
F2
330
17
100
AcDbEntity
  8
BINA_115
100
AcDbPolyline
 90
4
 70
1
 10
566424.4211470573
 20
4178573.0118229175
 10
566432.4070376891
 20
4178573.4867448234
 10
566432.1102114978
 20
4178578.4779264685
 10
566424.124320866
 20
4178578.0030045626
  0
TEXT
  5
F3
330
17
100
AcDbEntity
  8
BINA_NO_115
100
AcDbText
 10
566428.2656792775
 20
4178575.744874693
 30
0.0
 40
0.55
  1
1.3\P40 m2\P8.00x5.00
 72
1
 11
566428.2656792775
 21
4178575.744874693
 31
0.0
100
AcDbText
 73
2
  0
LWPOLYLINE
  5
F4
330
17
100
AcDbEntity
  8
BINA_115
100
AcDbPolyline
 90
4
 70
1
 10
566432.4070376891
 20
4178573.4867448234
 10
566437.8175326971
 20
4178573.8085076325
 10
566437.3794172386
 20
4178581.1754917405
 10
566431.9689222306
 20
4178580.8537289314
  0
TEXT
  5
F5
330
17
100
AcDbEntity
  8
BINA_NO_115
100
AcDbText
 10
566434.8932274638
 20
4178577.331118283
 30
0.0
 40
0.55
  1
1.4\P40 m2\P5.42x7.38
 72
1
 11
566434.8932274638
 21
4178577.331118283
 31
0.0
100
AcDbText
 73
2
  0
TEXT
  5
F6
330
17
100
AcDbEntity
  8
BINA_NO_115
100
AcDbText
 10
566424.2374116449
 20
4178581.191364356
 30
0.0
 40
1.0
  1
KITLE 1  4x40=160 m2  (kose 5.42x7.38 + orta 8x5)
 11
566424.2374116449
 21
4178581.191364356
 31
0.0
100
AcDbText
  0
LWPOLYLINE
  5
F7
330
17
100
AcDbEntity
  8
KITLE_115
100
AcDbPolyline
 90
8
 70
1
 10
566457.9569506341
 20
4178575.0062013147
 10
566484.7497219137
 20
4178576.5995707456
 10
566484.3116064552
 20
4178583.9665548536
 10
566478.9011114473
 20
4178583.6447920445
 10
566479.0424007144
 20
4178581.2689895816
 10
566463.0706194508
 20
4178580.319145769
 10
566462.9293301837
 20
4178582.694948232
 10
566457.5188351757
 20
4178582.3731854227
  0
LWPOLYLINE
  5
F8
330
17
100
AcDbEntity
  8
BINA_115
100
AcDbPolyline
 90
4
 70
1
 10
566457.9569506341
 20
4178575.0062013147
 10
566463.3674456421
 20
4178575.327964124
 10
566462.9293301837
 20
4178582.694948232
 10
566457.5188351757
 20
4178582.3731854227
  0
TEXT
  5
F9
330
17
100
AcDbEntity
  8
BINA_NO_115
100
AcDbText
 10
566460.443140409
 20
4178578.8505747737
 30
0.0
 40
0.55
  1
2.1\P40 m2\P5.42x7.38
 72
1
 11
566460.443140409
 21
4178578.8505747737
 31
0.0
100
AcDbText
 73
2
  0
LWPOLYLINE
  5
FA
330
17
100
AcDbEntity
  8
BINA_115
100
AcDbPolyline
 90
4
 70
1
 10
566463.3674456421
 20
4178575.327964124
 10
566471.3533362739
 20
4178575.80288603
 10
566471.0565100826
 20
4178580.7940676752
 10
566463.0706194508
 20
4178580.319145769
  0
TEXT
  5
FB
330
17
100
AcDbEntity
  8
BINA_NO_115
100
AcDbText
 10
566467.2119778624
 20
4178578.061015899
 30
0.0
 40
0.55
  1
2.2\P40 m2\P8.00x5.00
 72
1
 11
566467.2119778624
 21
4178578.061015899
 31
0.0
100
AcDbText
 73
2
  0
LWPOLYLINE
  5
FC
330
17
100
AcDbEntity
  8
BINA_115
100
AcDbPolyline
 90
4
 70
1
 10
566471.3533362739
 20
4178575.80288603
 10
566479.3392269057
 20
4178576.2778079365
 10
566479.0424007144
 20
4178581.2689895816
 10
566471.0565100826
 20
4178580.7940676752
  0
TEXT
  5
FD
330
17
100
AcDbEntity
  8
BINA_NO_115
100
AcDbText
 10
566475.1978684941
 20
4178578.5359378057
 30
0.0
 40
0.55
  1
2.3\P40 m2\P8.00x5.00
 72
1
 11
566475.1978684941
 21
4178578.5359378057
 31
0.0
100
AcDbText
 73
2
  0
LWPOLYLINE
  5
FE
330
17
100
AcDbEntity
  8
BINA_115
100
AcDbPolyline
 90
4
 70
1
 10
566479.3392269057
 20
4178576.2778079365
 10
566484.7497219137
 20
4178576.5995707456
 10
566484.3116064552
 20
4178583.9665548536
 10
566478.9011114473
 20
4178583.6447920445
  0
TEXT
  5
FF
330
17
100
AcDbEntity
  8
BINA_NO_115
100
AcDbText
 10
566481.8254166804
 20
4178580.1221813955
 30
0.0
 40
0.55
  1
2.4\P40 m2\P5.42x7.38
 72
1
 11
566481.8254166804
 21
4178580.1221813955
 31
0.0
100
AcDbText
 73
2
  0
TEXT
  5
100
330
17
100
AcDbEntity
  8
BINA_NO_115
100
AcDbText
 10
566471.1696008614
 20
4178583.982427468
 30
0.0
 40
1.0
  1
KITLE 2  4x40=160 m2  (kose 5.42x7.38 + orta 8x5)
 11
566471.1696008614
 21
4178583.982427468
 31
0.0
100
AcDbText
  0
LWPOLYLINE
  5
101
330
17
100
AcDbEntity
  8
KITLE_115
100
AcDbPolyline
 90
8
 70
1
 10
566504.8891398507
 20
4178577.797264428
 10
566531.6819111303
 20
4178579.3906338583
 10
566531.2437956718
 20
4178586.7576179663
 10
566525.8333006639
 20
4178586.435855157
 10
566525.974589931
 20
4178584.0600526943
 10
566510.0028086674
 20
4178583.110208882
 10
566509.8615194003
 20
4178585.486011345
 10
566504.4510243923
 20
4178585.164248536
  0
LWPOLYLINE
  5
102
330
17
100
AcDbEntity
  8
BINA_115
100
AcDbPolyline
 90
4
 70
1
 10
566504.8891398507
 20
4178577.797264428
 10
566510.2996348587
 20
4178578.119027237
 10
566509.8615194003
 20
4178585.486011345
 10
566504.4510243923
 20
4178585.164248536
  0
TEXT
  5
103
330
17
100
AcDbEntity
  8
BINA_NO_115
100
AcDbText
 10
566507.3753296257
 20
4178581.641637887
 30
0.0
 40
0.55
  1
3.1\P40 m2\P5.42x7.38
 72
1
 11
566507.3753296257
 21
4178581.641637887
 31
0.0
100
AcDbText
 73
2
  0
LWPOLYLINE
  5
104
330
17
100
AcDbEntity
  8
BINA_115
100
AcDbPolyline
 90
4
 70
1
 10
566510.2996348587
 20
4178578.119027237
 10
566518.2855254905
 20
4178578.5939491433
 10
566517.9886992992
 20
4178583.5851307884
 10
566510.0028086674
 20
4178583.110208882
  0
TEXT
  5
105
330
17
100
AcDbEntity
  8
BINA_NO_115
100
AcDbText
 10
566514.144167079
 20
4178580.8520790124
 30
0.0
 40
0.55
  1
3.2\P40 m2\P8.00x5.00
 72
1
 11
566514.144167079
 21
4178580.8520790124
 31
0.0
100
AcDbText
 73
2
  0
LWPOLYLINE
  5
106
330
17
100
AcDbEntity
  8
BINA_115
100
AcDbPolyline
 90
4
 70
1
 10
566518.2855254905
 20
4178578.5939491433
 10
566526.2714161223
 20
4178579.068871049
 10
566525.974589931
 20
4178584.0600526943
 10
566517.9886992992
 20
4178583.5851307884
  0
TEXT
  5
107
330
17
100
AcDbEntity
  8
BINA_NO_115
100
AcDbText
 10
566522.1300577108
 20
4178581.3270009183
 30
0.0
 40
0.55
  1
3.3\P40 m2\P8.00x5.00
 72
1
 11
566522.1300577108
 21
4178581.3270009183
 31
0.0
100
AcDbText
 73
2
  0
LWPOLYLINE
  5
108
330
17
100
AcDbEntity
  8
BINA_115
100
AcDbPolyline
 90
4
 70
1
 10
566526.2714161223
 20
4178579.068871049
 10
566531.6819111303
 20
4178579.3906338583
 10
566531.2437956718
 20
4178586.7576179663
 10
566525.8333006639
 20
4178586.435855157
  0
TEXT
  5
109
330
17
100
AcDbEntity
  8
BINA_NO_115
100
AcDbText
 10
566528.7576058971
 20
4178582.913244508
 30
0.0
 40
0.55
  1
3.4\P40 m2\P5.42x7.38
 72
1
 11
566528.7576058971
 21
4178582.913244508
 31
0.0
100
AcDbText
 73
2
  0
TEXT
  5
10A
330
17
100
AcDbEntity
  8
BINA_NO_115
100
AcDbText
 10
566518.1017900781
 20
4178586.773490581
 30
0.0
 40
1.0
  1
KITLE 3  4x40=160 m2  (kose 5.42x7.38 + orta 8x5)
 11
566518.1017900781
 21
4178586.773490581
 31
0.0
100
AcDbText
  0
ENDSEC
  0
SECTION
  2
OBJECTS
  0
DICTIONARY
  5
A
330
0
100
AcDbDictionary
281
1
  3
ACAD_COLOR
350
B
  3
ACAD_GROUP
350
C
  3
ACAD_LAYOUT
350
D
  3
ACAD_MATERIAL
350
E
  3
ACAD_MLEADERSTYLE
350
F
  3
ACAD_MLINESTYLE
350
10
  3
ACAD_PLOTSETTINGS
350
11
  3
ACAD_PLOTSTYLENAME
350
12
  3
ACAD_SCALELIST
350
14
  3
ACAD_TABLESTYLE
350
15
  3
ACAD_VISUALSTYLE
350
16
  3
EZDXF_META
350
2D
  0
DICTIONARY
  5
B
330
A
100
AcDbDictionary
281
1
  0
DICTIONARY
  5
C
330
A
100
AcDbDictionary
281
1
  0
DICTIONARY
  5
D
330
A
100
AcDbDictionary
281
1
  3
Model
350
1A
  3
Layout1
350
1E
  0
DICTIONARY
  5
E
330
A
100
AcDbDictionary
281
1
  3
ByBlock
350
1F
  3
ByLayer
350
20
  3
Global
350
21
  0
DICTIONARY
  5
F
330
A
100
AcDbDictionary
281
1
  3
Standard
350
2C
  0
DICTIONARY
  5
10
330
A
100
AcDbDictionary
281
1
  3
Standard
350
22
  0
DICTIONARY
  5
11
330
A
100
AcDbDictionary
281
1
  0
ACDBDICTIONARYWDFLT
  5
12
330
A
100
AcDbDictionary
281
1
  3
Normal
350
13
100
AcDbDictionaryWithDefault
340
13
  0
ACDBPLACEHOLDER
  5
13
330
12
  0
DICTIONARY
  5
14
330
A
100
AcDbDictionary
281
1
  0
DICTIONARY
  5
15
330
A
100
AcDbDictionary
281
1
  0
DICTIONARY
  5
16
330
A
100
AcDbDictionary
281
1
  3
2dWireframe
350
5A
  3
Basic
350
5B
  3
Brighten
350
5C
  3
ColorChange
350
5D
  3
Conceptual
350
5E
  3
Dim
350
5F
  3
EdgeColorOff
350
60
  3
Facepattern
350
61
  3
Flat
350
62
  3
FlatWithEdges
350
63
  3
Gouraud
350
64
  3
GouraudWithEdges
350
65
  3
Hidden
350
66
  3
JitterOff
350
67
  3
Linepattern
350
68
  3
Modeling
350
69
  3
OverhangOff
350
6A
  3
Realistic
350
6B
  3
Shaded
350
6C
  3
Shaded with edges
350
6D
  3
Shades of Gray
350
6E
  3
Sketchy
350
6F
  3
Thicken
350
70
  3
Wireframe
350
71
  3
X-Ray
350
72
  0
LAYOUT
  5
1A
330
D
100
AcDbPlotSettings
  1

  4
A3
  6

 40
7.5
 41
20.0
 42
7.5
 43
20.0
 44
420.0
 45
297.0
 46
0.0
 47
0.0
 48
0.0
 49
0.0
140
0.0
141
0.0
142
1.0
143
1.0
 70
1024
 72
1
 73
0
 74
5
  7

 75
16
 76
0
 77
2
 78
300
147
1.0
148
0.0
149
0.0
100
AcDbLayout
  1
Model
 70
1
 71
0
 10
0.0
 20
0.0
 11
420.0
 21
297.0
 12
0.0
 22
0.0
 32
0.0
 14
1e+20
 24
1e+20
 34
1e+20
 15
-1e+20
 25
-1e+20
 35
-1e+20
146
0.0
 13
0.0
 23
0.0
 33
0.0
 16
1.0
 26
0.0
 36
0.0
 17
0.0
 27
1.0
 37
0.0
 76
1
330
17
  0
LAYOUT
  5
1E
330
D
100
AcDbPlotSettings
  1

  4
A3
  6

 40
7.5
 41
20.0
 42
7.5
 43
20.0
 44
420.0
 45
297.0
 46
0.0
 47
0.0
 48
0.0
 49
0.0
140
0.0
141
0.0
142
1.0
143
1.0
 70
0
 72
1
 73
0
 74
5
  7

 75
16
 76
0
 77
2
 78
300
147
1.0
148
0.0
149
0.0
100
AcDbLayout
  1
Layout1
 70
1
 71
1
 10
0.0
 20
0.0
 11
420.0
 21
297.0
 12
0.0
 22
0.0
 32
0.0
 14
1e+20
 24
1e+20
 34
1e+20
 15
-1e+20
 25
-1e+20
 35
-1e+20
146
0.0
 13
0.0
 23
0.0
 33
0.0
 16
1.0
 26
0.0
 36
0.0
 17
0.0
 27
1.0
 37
0.0
 76
1
330
1B
  0
MATERIAL
  5
1F
102
{ACAD_REACTORS
330
E
102
}
330
E
100
AcDbMaterial
  1
ByBlock
  2

 70
0
 40
1.0
 71
1
 41
1.0
 91
-1023410177
 42
1.0
 72
1
  3

 73
1
 74
1
 75
1
 44
0.5
 73
0
 45
1.0
 46
1.0
 77
1
  4

 78
1
 79
1
170
1
 48
1.0
171
1
  6

172
1
173
1
174
1
140
1.0
141
1.0
175
1
  7

176
1
177
1
178
1
143
1.0
179
1
  8

270
1
271
1
272
1
145
1.0
146
1.0
273
1
  9

274
1
275
1
276
1
 42
1.0
 72
1
  3

 73
1
 74
1
 75
1
 94
63
  0
MATERIAL
  5
20
102
{ACAD_REACTORS
330
E
102
}
330
E
100
AcDbMaterial
  1
ByLayer
  2

 70
0
 40
1.0
 71
1
 41
1.0
 91
-1023410177
 42
1.0
 72
1
  3

 73
1
 74
1
 75
1
 44
0.5
 73
0
 45
1.0
 46
1.0
 77
1
  4

 78
1
 79
1
170
1
 48
1.0
171
1
  6

172
1
173
1
174
1
140
1.0
141
1.0
175
1
  7

176
1
177
1
178
1
143
1.0
179
1
  8

270
1
271
1
272
1
145
1.0
146
1.0
273
1
  9

274
1
275
1
276
1
 42
1.0
 72
1
  3

 73
1
 74
1
 75
1
 94
63
  0
MATERIAL
  5
21
102
{ACAD_REACTORS
330
E
102
}
330
E
100
AcDbMaterial
  1
Global
  2

 70
0
 40
1.0
 71
1
 41
1.0
 91
-1023410177
 42
1.0
 72
1
  3

 73
1
 74
1
 75
1
 44
0.5
 73
0
 45
1.0
 46
1.0
 77
1
  4

 78
1
 79
1
170
1
 48
1.0
171
1
  6

172
1
173
1
174
1
140
1.0
141
1.0
175
1
  7

176
1
177
1
178
1
143
1.0
179
1
  8

270
1
271
1
272
1
145
1.0
146
1.0
273
1
  9

274
1
275
1
276
1
 42
1.0
 72
1
  3

 73
1
 74
1
 75
1
 94
63
  0
MLINESTYLE
  5
22
102
{ACAD_REACTORS
330
10
102
}
330
10
100
AcDbMlineStyle
  2
Standard
 70
0
  3

 62
256
 51
90.0
 52
90.0
 71
2
 49
0.5
 62
256
  6
BYLAYER
 49
-0.5
 62
256
  6
BYLAYER
  0
MLEADERSTYLE
  5
2C
102
{ACAD_REACTORS
330
F
102
}
330
F
100
AcDbMLeaderStyle
179
2
170
2
171
1
172
0
 90
2
 40
0.0
 41
0.0
173
1
 91
-1056964608
 92
-2
290
1
 42
2.0
291
1
 43
8.0
  3
Standard
 44
4.0
300

342
29
174
1
175
1
176
0
178
1
 93
-1056964608
 45
4.0
292
0
297
0
 46
4.0
 94
-1056964608
 47
1.0
 49
1.0
140
1.0
294
1
141
0.0
177
0
142
1.0
295
0
296
0
143
3.75
271
0
272
9
273
9
  0
DICTIONARY
  5
2D
330
A
100
AcDbDictionary
280
1
281
1
  3
CREATED_BY_EZDXF
350
2E
  3
WRITTEN_BY_EZDXF
350
E7
  0
DICTIONARYVAR
  5
2E
330
2D
100
DictionaryVariables
280
0
  1
1.4.4 @ 2026-09-07T07:44:26.250665+00:00
  0
VISUALSTYLE
  5
5A
102
{ACAD_REACTORS
330
16
102
}
330
16
100
AcDbVisualStyle
  2
2dWireframe
 70
4
 90
0
 40
0.6
 62
7
290
0
291
0
  0
VISUALSTYLE
  5
5B
102
{ACAD_REACTORS
330
16
102
}
330
16
100
AcDbVisualStyle
  2
Basic
 70
7
 90
1
 40
0.6
 62
7
290
0
291
1
  0
VISUALSTYLE
  5
5C
102
{ACAD_REACTORS
330
16
102
}
330
16
100
AcDbVisualStyle
  2
Brighten
 70
12
 90
2
 40
0.6
 62
7
290
0
291
1
  0
VISUALSTYLE
  5
5D
102
{ACAD_REACTORS
330
16
102
}
330
16
100
AcDbVisualStyle
  2
ColorChange
 70
16
 90
2
 40
0.6
 62
8
290
0
291
1
  0
VISUALSTYLE
  5
5E
102
{ACAD_REACTORS
330
16
102
}
330
16
100
AcDbVisualStyle
  2
Conceptual
 70
9
 90
3
 40
0.6
 62
7
290
0
291
0
  0
VISUALSTYLE
  5
5F
102
{ACAD_REACTORS
330
16
102
}
330
16
100
AcDbVisualStyle
  2
Dim
 70
11
 90
2
 40
0.6
 62
7
290
0
291
1
  0
VISUALSTYLE
  5
60
102
{ACAD_REACTORS
330
16
102
}
330
16
100
AcDbVisualStyle
  2
EdgeColorOff
 70
22
 90
2
 40
0.6
 62
7
290
0
291
1
  0
VISUALSTYLE
  5
61
102
{ACAD_REACTORS
330
16
102
}
330
16
100
AcDbVisualStyle
  2
Facepattern
 70
15
 90
2
 40
0.6
 62
7
290
0
291
1
  0
VISUALSTYLE
  5
62
102
{ACAD_REACTORS
330
16
102
}
330
16
100
AcDbVisualStyle
  2
Flat
 70
0
 90
2
 40
0.6
 62
7
290
0
291
1
  0
VISUALSTYLE
  5
63
102
{ACAD_REACTORS
330
16
102
}
330
16
100
AcDbVisualStyle
  2
FlatWithEdges
 70
1
 90
2
 40
0.6
 62
7
290
0
291
1
  0
VISUALSTYLE
  5
64
102
{ACAD_REACTORS
330
16
102
}
330
16
100
AcDbVisualStyle
  2
Gouraud
 70
2
 90
2
 40
0.6
 62
7
290
0
291
1
  0
VISUALSTYLE
  5
65
102
{ACAD_REACTORS
330
16
102
}
330
16
100
AcDbVisualStyle
  2
GouraudWithEdges
 70
3
 90
2
 40
0.6
 62
7
290
0
291
1
  0
VISUALSTYLE
  5
66
102
{ACAD_REACTORS
330
16
102
}
330
16
100
AcDbVisualStyle
  2
Hidden
 70
6
 90
1
 40
0.6
 62
7
290
0
291
0
  0
VISUALSTYLE
  5
67
102
{ACAD_REACTORS
330
16
102
}
330
16
100
AcDbVisualStyle
  2
JitterOff
 70
20
 90
2
 40
0.6
 62
7
290
0
291
1
  0
VISUALSTYLE
  5
68
102
{ACAD_REACTORS
330
16
102
}
330
16
100
AcDbVisualStyle
  2
Linepattern
 70
14
 90
2
 40
0.6
 62
7
290
0
291
1
  0
VISUALSTYLE
  5
69
102
{ACAD_REACTORS
330
16
102
}
330
16
100
AcDbVisualStyle
  2
Modeling
 70
10
 90
2
 40
0.6
 62
7
290
0
291
0
  0
VISUALSTYLE
  5
6A
102
{ACAD_REACTORS
330
16
102
}
330
16
100
AcDbVisualStyle
  2
OverhangOff
 70
21
 90
2
 40
0.6
 62
7
290
0
291
1
  0
VISUALSTYLE
  5
6B
102
{ACAD_REACTORS
330
16
102
}
330
16
100
AcDbVisualStyle
  2
Realistic
 70
8
 90
2
 40
0.6
 62
7
290
0
291
0
  0
VISUALSTYLE
  5
6C
102
{ACAD_REACTORS
330
16
102
}
330
16
100
AcDbVisualStyle
  2
Shaded
 70
27
 90
2
 40
0.6
 62
7
290
0
291
0
  0
VISUALSTYLE
  5
6D
102
{ACAD_REACTORS
330
16
102
}
330
16
100
AcDbVisualStyle
  2
Shaded with edges
 70
26
 90
2
 40
0.6
 62
7
290
0
291
0
  0
VISUALSTYLE
  5
6E
102
{ACAD_REACTORS
330
16
102
}
330
16
100
AcDbVisualStyle
  2
Shades of Gray
 70
23
 90
2
 40
0.6
 62
7
290
0
291
0
  0
VISUALSTYLE
  5
6F
102
{ACAD_REACTORS
330
16
102
}
330
16
100
AcDbVisualStyle
  2
Sketchy
 70
24
 90
1
 40
0.6
 62
7
290
0
291
0
  0
VISUALSTYLE
  5
70
102
{ACAD_REACTORS
330
16
102
}
330
16
100
AcDbVisualStyle
  2
Thicken
 70
13
 90
2
 40
0.6
 62
7
290
0
291
1
  0
VISUALSTYLE
  5
71
102
{ACAD_REACTORS
330
16
102
}
330
16
100
AcDbVisualStyle
  2
Wireframe
 70
5
 90
0
 40
0.6
 62
7
290
0
291
0
  0
VISUALSTYLE
  5
72
102
{ACAD_REACTORS
330
16
102
}
330
16
100
AcDbVisualStyle
  2
X-Ray
 70
25
 90
2
 40
0.5
 62
7
290
0
291
0
  0
DICTIONARYVAR
  5
E7
330
2D
100
DictionaryVariables
280
0
  1
1.4.4 @ 2026-09-07T07:45:37.108994+00:00
  0
ENDSEC
  0
EOF
